<svg width="60" height="60" viewBox="0 0 60 60" fill="none" xmlns="http://www.w3.org/2000/svg">
<g clip-path="url(#clip0)">
<path d="M59.992 6.95066V5.15723C59.992 3.6066 58.7301 2.34473 57.1795 2.34473H2.8045C1.25388 2.34473 -0.00799561 3.6066 -0.00799561 5.15723V7.03223C-0.00799561 7.06129 0.00606689 7.08566 0.00887939 7.11379V56.7179C0.00887939 57.2363 0.427942 57.6554 0.946379 57.6554H59.0714C59.5898 57.6554 60.0089 57.2363 60.0089 56.7179V7.03223C60.0089 7.00316 59.9948 6.97879 59.992 6.95066ZM2.8045 4.21973H3.76075C3.24325 4.21973 2.82888 4.63879 2.82888 5.15723C2.82888 5.67566 3.25263 6.09473 3.77107 6.09473C4.28857 6.09473 4.70857 5.67566 4.70857 5.15723C4.70857 4.63879 4.28857 4.21973 3.77107 4.21973H6.57325C6.05575 4.21973 5.64138 4.63879 5.64138 5.15723C5.64138 5.67566 6.06513 6.09473 6.58357 6.09473C7.10107 6.09473 7.52107 5.67566 7.52107 5.15723C7.52107 4.63879 7.10107 4.21973 6.58357 4.21973H9.38575C8.86825 4.21973 8.45388 4.63879 8.45388 5.15723C8.45388 5.67566 8.87763 6.09473 9.39607 6.09473C9.91357 6.09473 10.3336 5.67566 10.3336 5.15723C10.3336 4.63879 9.91357 4.21973 9.39607 4.21973H57.1804C57.6979 4.21973 58.1179 4.63973 58.1179 5.15723V6.09473H9.39607H6.58357H3.77107H1.86794V5.15723C1.867 4.63973 2.287 4.21973 2.8045 4.21973ZM58.1339 55.7804H1.88388V7.96973H58.1339V55.7804Z" fill="#034899"/>
<path d="M4.70395 39.8575H55.328C55.8465 39.8575 56.2655 39.4384 56.2655 38.92V10.7969C56.2655 10.2784 55.8465 9.85938 55.328 9.85938H4.70395C4.18551 9.85938 3.76645 10.2784 3.76645 10.7969V38.92C3.76645 39.4375 4.18551 39.8575 4.70395 39.8575ZM10.3289 37.0441C10.3289 36.0175 11.1605 35.1831 12.1852 35.1728C12.1918 35.1728 12.1974 35.1765 12.2039 35.1765H14.6358L15.293 35.8328C15.3043 35.8431 15.3174 35.8469 15.3286 35.8562C15.3989 35.9191 15.4758 35.9706 15.5602 36.01C15.5883 36.0231 15.6146 36.0353 15.6427 36.0456C15.7421 36.0803 15.8461 36.1047 15.9521 36.1056H15.9549H15.9558C16.0599 36.1056 16.1668 36.0822 16.2689 36.0447C16.2896 36.0372 16.3093 36.0315 16.3289 36.0231C16.3439 36.0166 16.358 36.0147 16.373 36.0072L17.8299 35.2806L19.2868 36.0072C19.3018 36.0147 19.3158 36.0166 19.3308 36.0231C19.3505 36.0325 19.3702 36.0381 19.3908 36.0447C19.493 36.0822 19.5999 36.1056 19.7039 36.1056H19.7049H19.7077C19.8136 36.1047 19.9177 36.0803 20.0171 36.0456C20.0452 36.0353 20.0714 36.0231 20.0996 36.01C20.184 35.9706 20.2608 35.9191 20.3311 35.8562C20.3424 35.8459 20.3555 35.8422 20.3668 35.8328L21.024 35.1765H23.4558C23.4624 35.1765 23.468 35.1728 23.4746 35.1728C24.5002 35.1831 25.3308 36.0175 25.3308 37.0441V37.9825H10.3289V37.0441ZM15.0164 19.2203C15.5349 19.2203 15.9539 18.8012 15.9539 18.2828V15.7947C17.1596 15.37 18.4955 15.3691 19.7021 15.7928V18.2828C19.7021 18.8012 20.1211 19.2203 20.6396 19.2203C21.158 19.2203 21.5771 18.8012 21.5771 18.2828V17.8412C22.5193 18.6878 23.153 19.8391 23.3686 21.0962H12.2939C12.5086 19.8419 13.1396 18.6934 14.078 17.8478V18.2828C14.0789 18.8012 14.498 19.2203 15.0164 19.2203ZM11.2664 23.9087V22.9712H24.3914V23.9087H11.2664ZM12.2049 25.7837H23.4549V25.7978V25.7987V25.7997C23.4549 28.9019 20.9321 31.4247 17.8299 31.4247C14.7277 31.4247 12.2049 28.9019 12.2049 25.7997V25.7837ZM17.8299 33.2997C18.4777 33.2997 19.1039 33.2078 19.7049 33.0522V33.8444L19.5202 34.0291L18.249 33.3944C18.2293 33.385 18.2096 33.3859 18.1899 33.3784C18.128 33.3522 18.0643 33.3381 17.9986 33.3259C17.9405 33.3147 17.8871 33.3034 17.8299 33.3044C17.7727 33.3034 17.7193 33.3156 17.6611 33.3259C17.5955 33.3381 17.5318 33.3512 17.4708 33.3775C17.4511 33.3859 17.4305 33.385 17.4118 33.3944L16.1405 34.0291L15.9558 33.8444V33.0522C16.5549 33.2078 17.1811 33.2997 17.8299 33.2997ZM5.64145 11.7344H54.3905V37.9825H27.2058V37.0441C27.2058 34.9778 25.5239 33.2959 23.4558 33.2959C23.4464 33.2959 23.438 33.3016 23.4286 33.3016H21.5799V32.2853C23.8177 30.9859 25.3289 28.57 25.3299 25.8025C25.3299 25.8016 25.3299 25.8016 25.3299 25.8016V25.7837C25.8474 25.7828 26.2664 25.3647 26.2664 24.8462V22.0337C26.2664 21.5153 25.8474 21.0962 25.3289 21.0962H25.2643C24.9699 18.7891 23.5993 16.7322 21.5771 15.5575V15.1628C21.5771 15.1159 21.5574 15.0756 21.5508 15.0306C21.5405 14.9603 21.5349 14.89 21.5096 14.8234C21.4871 14.7662 21.4505 14.7203 21.4177 14.6697C21.3858 14.6181 21.3586 14.5666 21.3183 14.5225C21.2696 14.47 21.2077 14.4344 21.1477 14.3941C21.1102 14.3697 21.083 14.335 21.0418 14.3153C21.0324 14.3106 21.0221 14.3078 21.0136 14.3031C21.0071 14.3003 21.0005 14.2984 20.9949 14.2956C19.0008 13.3684 16.6514 13.3712 14.6593 14.2994C14.6546 14.3012 14.6499 14.3031 14.6443 14.305C14.6339 14.3097 14.6236 14.3134 14.6133 14.3181C14.5702 14.3378 14.5421 14.3753 14.5036 14.4006C14.4446 14.44 14.3855 14.4747 14.3377 14.5253C14.2964 14.5694 14.2711 14.6219 14.2393 14.6716C14.2064 14.7231 14.1699 14.7691 14.1464 14.8272C14.1211 14.8928 14.1164 14.9622 14.1052 15.0325C14.0986 15.0775 14.0789 15.1178 14.0789 15.1656V15.5612C12.0624 16.7359 10.6946 18.7919 10.3993 21.0962H10.3289C9.81051 21.0962 9.39145 21.5153 9.39145 22.0337V24.8462C9.39145 25.3647 9.81051 25.7837 10.3289 25.7837H10.3299V25.7997C10.3299 28.5681 11.8421 30.985 14.0799 32.2853V33.3016H12.2311C12.2208 33.3016 12.2124 33.2959 12.2039 33.2959C10.1358 33.2959 8.45395 34.9778 8.45395 37.0441V37.9825H5.64145V11.7344Z" fill="#034899"/>
<path d="M32.8165 27.6719H49.7027C50.2211 27.6719 50.6402 27.2528 50.6402 26.7344C50.6402 26.2159 50.2211 25.7969 49.7027 25.7969H32.8165C32.298 25.7969 31.879 26.2159 31.879 26.7344C31.879 27.2528 32.298 27.6719 32.8165 27.6719Z" fill="#E6330F"/>
<path d="M32.8165 30.4829H49.7027C50.2211 30.4829 50.6402 30.0638 50.6402 29.5454C50.6402 29.027 50.2211 28.6079 49.7027 28.6079H32.8165C32.298 28.6079 31.879 29.027 31.879 29.5454C31.879 30.0638 32.298 30.4829 32.8165 30.4829Z" fill="#E6330F"/>
<path d="M32.8165 33.2974H43.1336C43.6521 33.2974 44.0711 32.8783 44.0711 32.3599C44.0711 31.8414 43.6521 31.4224 43.1336 31.4224H32.8165C32.298 31.4224 31.879 31.8414 31.879 32.3599C31.879 32.8783 32.298 33.2974 32.8165 33.2974Z" fill="#E6330F"/>
<path d="M51.575 45.0161C51.575 43.2067 50.1031 41.7349 48.2938 41.7349C46.4844 41.7349 45.0125 43.2067 45.0125 45.0161C45.0125 46.8255 46.4844 48.2974 48.2938 48.2974C50.1031 48.2974 51.575 46.8246 51.575 45.0161ZM46.8875 45.0161C46.8875 44.2408 47.5184 43.6099 48.2938 43.6099C49.0691 43.6099 49.7 44.2408 49.7 45.0161C49.7 45.7914 49.0691 46.4224 48.2938 46.4224C47.5184 46.4224 46.8875 45.7914 46.8875 45.0161Z" fill="#034899"/>
<path d="M33.2816 45.0161C33.2816 43.2067 31.8097 41.7349 30.0003 41.7349C28.1909 41.7349 26.7191 43.2067 26.7191 45.0161C26.7191 46.8255 28.1909 48.2974 30.0003 48.2974C31.8097 48.2974 33.2816 46.8246 33.2816 45.0161ZM28.5941 45.0161C28.5941 44.2408 29.225 43.6099 30.0003 43.6099C30.7756 43.6099 31.4066 44.2408 31.4066 45.0161C31.4066 45.7914 30.7756 46.4224 30.0003 46.4224C29.225 46.4224 28.5941 45.7914 28.5941 45.0161Z" fill="#034899"/>
<path d="M35.1717 23.9072C36.9811 23.9072 38.4529 22.4354 38.4529 20.626C38.4529 18.8166 36.9811 17.3447 35.1717 17.3447C33.3623 17.3447 31.8904 18.8166 31.8904 20.626C31.8904 22.4354 33.3623 23.9072 35.1717 23.9072ZM35.1717 19.2197C35.947 19.2197 36.5779 19.8507 36.5779 20.626C36.5779 21.4013 35.947 22.0322 35.1717 22.0322C34.3964 22.0322 33.7654 21.4013 33.7654 20.626C33.7654 19.8507 34.3954 19.2197 35.1717 19.2197Z" fill="#E6330F"/>
<path d="M14.9881 45.0161C14.9881 43.2067 13.5162 41.7349 11.7068 41.7349C9.89747 41.7349 8.4256 43.2067 8.4256 45.0161C8.4256 46.8255 9.89747 48.2974 11.7068 48.2974C13.5162 48.2974 14.9881 46.8246 14.9881 45.0161ZM10.3006 45.0161C10.3006 44.2408 10.9315 43.6099 11.7068 43.6099C12.4822 43.6099 13.1131 44.2408 13.1131 45.0161C13.1131 45.7914 12.4822 46.4224 11.7068 46.4224C10.9315 46.4224 10.3006 45.7914 10.3006 45.0161Z" fill="#034899"/>
<path d="M17.823 49.2349H5.64117C5.12274 49.2349 4.70367 49.6539 4.70367 50.1724C4.70367 50.6908 5.12274 51.1099 5.64117 51.1099H17.823C18.3415 51.1099 18.7605 50.6908 18.7605 50.1724C18.7605 49.6539 18.3405 49.2349 17.823 49.2349Z" fill="#034899"/>
<path d="M54.3848 49.2349H42.2029C41.6845 49.2349 41.2654 49.6539 41.2654 50.1724C41.2654 50.6908 41.6845 51.1099 42.2029 51.1099H54.3848C54.9032 51.1099 55.3223 50.6908 55.3223 50.1724C55.3223 49.6539 54.9032 49.2349 54.3848 49.2349Z" fill="#034899"/>
<path d="M36.0913 49.2349H23.9095C23.391 49.2349 22.972 49.6539 22.972 50.1724C22.972 50.6908 23.391 51.1099 23.9095 51.1099H36.0913C36.6098 51.1099 37.0288 50.6908 37.0288 50.1724C37.0288 49.6539 36.6098 49.2349 36.0913 49.2349Z" fill="#034899"/>
<path d="M33.2967 52.0474H26.7051C26.1867 52.0474 25.7676 52.4664 25.7676 52.9849C25.7676 53.5033 26.1867 53.9224 26.7051 53.9224H33.2967C33.8151 53.9224 34.2342 53.5033 34.2342 52.9849C34.2342 52.4664 33.8142 52.0474 33.2967 52.0474Z" fill="#034899"/>
<path d="M51.5777 52.0474H45.0096C44.4911 52.0474 44.0721 52.4664 44.0721 52.9849C44.0721 53.5033 44.4911 53.9224 45.0096 53.9224H51.5777C52.0961 53.9224 52.5152 53.5033 52.5152 52.9849C52.5152 52.4664 52.0952 52.0474 51.5777 52.0474Z" fill="#034899"/>
<path d="M15.0153 52.0474H8.45465C7.93621 52.0474 7.51715 52.4664 7.51715 52.9849C7.51715 53.5033 7.93621 53.9224 8.45465 53.9224H15.0153C15.5337 53.9224 15.9528 53.5033 15.9528 52.9849C15.9528 52.4664 15.5328 52.0474 15.0153 52.0474Z" fill="#034899"/>
</g>
<defs>
<clipPath id="clip0">
<rect width="60" height="60" fill="white" transform="translate(0.000305176)"/>
</clipPath>
</defs>
</svg>
