<svg width="60" height="60" viewBox="0 0 60 60" fill="none" xmlns="http://www.w3.org/2000/svg">
<path d="M26.25 13.9553H9.375C7.82438 13.9553 6.5625 15.2076 6.5625 16.7464V27.5253L3.97406 30.0931C2.01562 32.0365 0.9375 34.6201 0.9375 37.3693C0.9375 37.9331 0.985312 38.5024 1.07812 39.0606L2.53688 47.7426C2.73844 48.9455 3.07219 50.1327 3.53156 51.2705L4.6875 54.1396V58.6118H17.8125V54.1396L18.4594 52.5339C19.275 50.5132 19.6875 48.3836 19.6875 46.2057C19.6875 45.7693 19.6706 45.333 19.6369 44.8985L19.4016 41.8656H26.25C27.8006 41.8656 29.0625 40.6134 29.0625 39.0746V16.7464C29.0625 15.2076 27.8006 13.9553 26.25 13.9553ZM14.0625 33.0804C13.4222 33.4981 12.9338 34.1373 12.7378 34.9188L12.1875 37.1004V15.816H14.0625V33.0804ZM8.4375 41.6944C8.73187 41.7986 9.045 41.8656 9.375 41.8656H10.6172C10.4091 42.3457 10.1897 42.8202 9.95438 43.2863C9.81844 43.5579 9.54375 43.7263 9.23812 43.7263C8.7975 43.7263 8.4375 43.37 8.4375 42.9318V41.6944ZM8.4375 16.7464C8.4375 16.2337 8.8575 15.816 9.375 15.816H10.3125V40.0049H9.375C8.8575 40.0049 8.4375 39.5872 8.4375 39.0746V16.7464ZM15.9375 56.7511H6.5625V54.8904H15.9375V56.7511ZM16.7184 51.8436L16.2403 53.0297H6.25969L5.2725 50.5802C4.86375 49.5661 4.56562 48.5083 4.38656 47.4375L2.92781 38.7555C2.85094 38.2987 2.8125 37.8326 2.8125 37.3693C2.8125 35.1178 3.69562 33.0004 5.29969 31.4086L6.5625 30.1563V39.0746V42.9318C6.5625 44.3962 7.7625 45.587 9.23812 45.587C10.2572 45.587 11.1741 45.0251 11.6316 44.1189C12.5878 42.2201 13.335 40.2152 13.8525 38.1582L14.5556 35.369C14.6972 34.8118 15.1997 34.4229 15.7781 34.4229C16.4316 34.4229 16.9828 34.9299 17.0334 35.5765L17.7675 45.0418C17.7975 45.4288 17.8125 45.8177 17.8125 46.2057C17.8125 48.1464 17.4441 50.0433 16.7184 51.8436ZM27.1875 39.0746C27.1875 39.5872 26.7675 40.0049 26.25 40.0049H19.2572L18.9028 35.4342C18.7828 33.8777 17.4937 32.658 15.9375 32.578V15.816H26.25C26.7675 15.816 27.1875 16.2337 27.1875 16.7464V39.0746Z" fill="#034899"/>
<path d="M23.4375 36.2834H25.3125V38.1441H23.4375V36.2834Z" fill="#E6330F"/>
<path d="M23.4375 32.562H25.3125V34.4227H23.4375V32.562Z" fill="#E6330F"/>
<path d="M23.4375 28.8408H25.3125V30.7015H23.4375V28.8408Z" fill="#E6330F"/>
<path d="M19.6875 28.8408H21.5625V38.1443H19.6875V28.8408Z" fill="#034899"/>
<path d="M55.3125 12.1885V0.93042H34.6875V12.1885C32.5509 12.6211 30.9375 14.4995 30.9375 16.7463V53.96C30.9375 56.525 33.0403 58.6117 35.625 58.6117H54.375C56.9597 58.6117 59.0625 56.525 59.0625 53.96V16.7463C59.0625 14.5004 57.4491 12.6211 55.3125 12.1885ZM53.4375 2.79111V12.0945H36.5625V2.79111H53.4375ZM40.3125 13.9552H49.6875V14.8856C49.6875 15.3982 49.2675 15.8159 48.75 15.8159H41.25C40.7325 15.8159 40.3125 15.3982 40.3125 14.8856V13.9552ZM35.625 13.9552H38.4375V14.8856C38.4375 16.4244 39.6994 17.6766 41.25 17.6766H48.75C50.3006 17.6766 51.5625 16.4244 51.5625 14.8856V13.9552H54.375C55.9256 13.9552 57.1875 15.2075 57.1875 16.7463V32.0969L56.0634 32.9342C54.4191 34.1576 53.4375 36.1058 53.4375 38.1442V56.751H36.5625V38.1442C36.5625 36.1058 35.5809 34.1576 33.9375 32.9342L32.8125 32.0969V16.7463C32.8125 15.2075 34.0744 13.9552 35.625 13.9552ZM32.8125 53.96V34.4228C33.9862 35.2964 34.6875 36.6872 34.6875 38.1442V56.5799C33.5991 56.1947 32.8125 55.1713 32.8125 53.96ZM55.3125 56.5799V38.1442C55.3125 36.6882 56.0138 35.2973 57.1875 34.4237V53.96C57.1875 55.1713 56.4009 56.1947 55.3125 56.5799Z" fill="#034899"/>
<path d="M36.5625 30.7015H53.4375C54.4716 30.7015 55.3125 29.867 55.3125 28.8408V21.398C55.3125 20.3719 54.4716 19.5374 53.4375 19.5374H36.5625C35.5284 19.5374 34.6875 20.3719 34.6875 21.398V28.8408C34.6875 29.867 35.5284 30.7015 36.5625 30.7015ZM36.5625 21.398H53.4375L53.4384 28.8408H36.5625V21.398Z" fill="#034899"/>
<path d="M42.1875 41.8655H44.0625V43.7262H42.1875V41.8655Z" fill="#034899"/>
<path d="M49.6875 41.8655H51.5625V43.7262H49.6875V41.8655Z" fill="#034899"/>
<path d="M38.4375 41.8655H40.3125V43.7262H38.4375V41.8655Z" fill="#034899"/>
<path d="M45.9375 41.8655H47.8125V43.7262H45.9375V41.8655Z" fill="#034899"/>
<path d="M45.9375 38.144H47.8125V40.0047H45.9375V38.144Z" fill="#034899"/>
<path d="M42.1875 38.144H44.0625V40.0047H42.1875V38.144Z" fill="#034899"/>
<path d="M49.6875 38.144H51.5625V40.0047H49.6875V38.144Z" fill="#034899"/>
<path d="M38.4375 38.144H40.3125V40.0047H38.4375V38.144Z" fill="#034899"/>
<path d="M42.1875 45.5869H44.0625V47.4476H42.1875V45.5869Z" fill="#034899"/>
<path d="M45.9375 45.5869H47.8125V47.4476H45.9375V45.5869Z" fill="#034899"/>
<path d="M38.4375 45.5869H40.3125V47.4476H38.4375V45.5869Z" fill="#034899"/>
<path d="M49.6875 45.5869H51.5625V47.4476H49.6875V45.5869Z" fill="#034899"/>
<path d="M49.6875 49.3083H51.5625V51.169H49.6875V49.3083Z" fill="#034899"/>
<path d="M42.1875 49.3083H44.0625V51.169H42.1875V49.3083Z" fill="#034899"/>
<path d="M45.9375 49.3083H47.8125V51.169H45.9375V49.3083Z" fill="#034899"/>
<path d="M38.4375 49.3083H40.3125V51.169H38.4375V49.3083Z" fill="#034899"/>
<path d="M38.4375 4.65186H51.5625V6.51254H38.4375V4.65186Z" fill="#034899"/>
<path d="M49.6875 8.37305H51.5625V10.2337H49.6875V8.37305Z" fill="#034899"/>
<path d="M38.4375 8.37305H47.8125V10.2337H38.4375V8.37305Z" fill="#034899"/>
<path fill-rule="evenodd" clip-rule="evenodd" d="M21.9216 24.6827H19.3224V26.4741H22.5122L21.9216 24.6827Z" fill="#F44336"/>
<path fill-rule="evenodd" clip-rule="evenodd" d="M20.6728 25.3037C20.6728 25.3037 20.6728 25.382 20.6728 25.5328C20.6728 25.6836 20.8251 25.9052 21.1862 25.9052C21.4815 25.9052 21.5906 25.732 21.5906 25.5607C21.5906 25.4639 21.4213 25.3037 21.2201 25.3037H20.6728ZM21.7015 24.7879V25.3037H21.5642C21.6451 25.3913 21.7599 25.5756 21.7599 25.7823C21.7599 25.9872 21.6132 26.3745 21.1806 26.3745C20.7499 26.3745 20.5355 25.8792 20.5355 25.5924C20.5355 25.3056 20.5355 25.3037 20.5355 25.3037C20.3775 25.3037 20.3399 25.3037 20.2289 25.3037C20.1198 25.3037 20.022 25.382 20.022 25.5216C20.022 25.6631 20.1161 25.8345 20.3568 25.8345V26.246C20.1969 26.246 19.8866 26.138 19.8866 25.5179C19.8866 24.8959 20.1687 24.8307 20.2947 24.8307C20.4226 24.8307 21.4665 24.8307 21.5266 24.8307C21.6301 24.8307 21.7015 24.7879 21.7015 24.7879Z" fill="white"/>
<path fill-rule="evenodd" clip-rule="evenodd" d="M21.1056 21.5226V21.7628H21.083L21.0623 21.7591L21.0435 21.7553L21.0247 21.7498L21.0059 21.7442L20.9909 21.7349L20.9739 21.7256L20.9608 21.7144L20.9476 21.7014L20.9344 21.6902L20.925 21.6753L20.9138 21.6604L20.9062 21.6455L20.8987 21.6306L20.8912 21.612L20.8855 21.5952L20.8818 21.5785L20.878 21.5598L20.8761 21.5431L20.8743 21.5245V21.5226L20.8761 21.5077L20.878 21.4891L20.8799 21.4723L20.8837 21.4537L20.8893 21.4369L20.8949 21.4202L20.9025 21.4052L20.91 21.3904L20.9213 21.3736L20.9307 21.3606L20.9439 21.3475L20.957 21.3363L20.9721 21.3233L20.9871 21.314L21.004 21.3066L21.021 21.2991L21.0416 21.2935L21.0605 21.288L21.083 21.2861L21.1056 21.2842V21.5226ZM19.9734 23.9062V24.4258H21.73V23.9062H19.9734ZM20.8837 16.5542L20.8667 16.5579L20.8479 16.5616L20.8329 16.5672L20.816 16.571L20.8009 16.5765L20.7859 16.5821L20.7708 16.5896L20.7577 16.5952L20.7445 16.6026L20.7313 16.61L20.7182 16.6193L20.7069 16.6287L20.6975 16.638L20.6862 16.6492L20.6749 16.6585L20.6655 16.6697L20.6561 16.6808L20.6467 16.692L20.6392 16.705L20.6298 16.7162L20.6222 16.7292L20.6147 16.7423L20.6053 16.7553L20.5997 16.7683L20.5921 16.7833L20.5865 16.7981L20.579 16.8112L20.5733 16.8261L20.5677 16.841L20.562 16.8559L20.5564 16.8708L20.5508 16.8875L20.547 16.9043L20.5432 16.9192L20.5376 16.9359L20.5338 16.9527L20.5301 16.9694L20.5263 16.9862L20.5226 17.003L20.5207 17.0216L20.5169 17.0402L20.515 17.057L20.5113 17.0756L20.5094 17.0924L20.5056 17.111L20.5037 17.1296L20.5019 17.1501V17.1687L20.5 17.1873V17.206L20.4981 17.2227V17.2413V17.2618V17.2823V17.3028V17.3233V17.3438V17.3642L20.5 17.3829L20.5019 17.4034L20.5037 17.4238V17.4443L20.5056 17.463L20.5094 17.4816L20.5113 17.4983L20.515 17.517L20.5169 17.5337L20.5207 17.5523L20.5226 17.5691L20.5263 17.5877L20.5301 17.6045L20.5338 17.6212L20.5395 17.6361L20.5432 17.6529L20.547 17.6678L20.5526 17.6846L20.5583 17.6995L20.5639 17.7162L20.5696 17.7311L20.5752 17.746L20.5809 17.759L20.5884 17.7739L20.594 17.7888L20.6015 17.8019L20.6091 17.8168L20.6166 17.8279L20.6241 17.841L20.6316 17.854L20.6392 17.8671L20.6486 17.8801L20.658 17.8913L20.6655 17.9024L20.6749 17.9155L20.6862 17.9248L20.6956 17.936L20.705 17.9471L20.7144 17.9565L20.7257 17.9676L20.737 17.9788L20.7464 17.9881L20.7595 17.9974L20.7708 18.0067L20.7821 18.0142L20.7953 18.0235L20.8084 18.0309L20.8197 18.0402L20.8348 18.0477L20.8479 18.0551L20.8611 18.0607L20.878 18.0663L20.8912 18.0738L20.9081 18.0775L20.9232 18.0831L20.9401 18.0886L20.957 18.0905L20.9739 18.0942L20.9871 18.0961L20.9965 18.0979L21.0266 18.0998V17.5244H21.0003L20.9927 17.5225L20.9815 17.5188L20.9664 17.5132L20.9514 17.5058L20.9401 17.4983L20.9288 17.4872L20.9194 17.4778L20.91 17.4648L20.9044 17.4499L20.8987 17.4369L20.8931 17.4201L20.8874 17.4034L20.8837 17.3866L20.8818 17.368V17.3494L20.8799 17.3289L20.8818 17.3102V17.2898L20.8855 17.273L20.8893 17.2563L20.8931 17.2395L20.8987 17.2246L20.9044 17.2097L20.9119 17.1966L20.9213 17.1836L20.9307 17.1743L20.9439 17.165L20.9589 17.1594L20.9758 17.1557H20.9927H21.0116L21.0266 17.1613L21.0398 17.1687L21.0492 17.1799L21.0567 17.1911L21.0642 17.206L21.0699 17.2209L21.0755 17.2358L21.0793 17.2525L21.083 17.2693L21.0868 17.286L21.0906 17.3047L21.0924 17.3214L21.1037 17.3941L21.115 17.4667L21.1244 17.5393L21.1357 17.6101L21.1376 17.6287L21.1413 17.6454L21.1451 17.6641L21.147 17.6808L21.1507 17.6976L21.1545 17.7162L21.1583 17.733L21.162 17.7497L21.1658 17.7665L21.1714 17.7814L21.1752 17.7982L21.1789 17.8149L21.1846 17.8298L21.1902 17.8466L21.194 17.8614L21.1996 17.8764L21.2053 17.8931L21.2109 17.908L21.2166 17.9229L21.2241 17.936L21.2297 17.9508L21.2354 17.9657L21.2429 17.9788L21.2504 17.9918L21.2579 18.0049L21.2673 18.0179L21.2749 18.0309L21.2824 18.0421L21.2918 18.0533L21.3031 18.0644L21.3125 18.0756L21.3238 18.0849L21.3351 18.0942L21.3463 18.1036L21.3576 18.1129L21.3708 18.1203L21.3858 18.1278L21.399 18.1333L21.414 18.1408L21.4291 18.1445L21.446 18.1501L21.4629 18.1538L21.4799 18.1576L21.4987 18.1613L21.5156 18.1631L21.5344 18.165H21.5513L21.5683 18.1631L21.5852 18.1613L21.6002 18.1576L21.6172 18.152L21.6303 18.1464L21.6454 18.1389L21.6585 18.1315L21.6698 18.1222L21.6811 18.1129L21.6905 18.1017L21.6999 18.0905L21.7093 18.0794L21.7168 18.0663L21.7225 18.0514L21.7263 18.0347L21.7281 18.0179L21.73 17.9993V17.4369L21.7112 17.4648L21.7056 17.4704L21.6962 17.4778L21.6868 17.4853L21.6736 17.4946L21.6623 17.502L21.6473 17.5095L21.6303 17.5151L21.6134 17.5188H21.5965L21.5795 17.5151L21.5626 17.5113L21.5495 17.5058L21.5363 17.4983L21.525 17.4872L21.5156 17.4778L21.5043 17.4667L21.4968 17.4536L21.4893 17.4406L21.4818 17.4276L21.4761 17.4127L21.4705 17.3978L21.4498 17.3345L21.4291 17.273L21.4234 17.2581L21.4197 17.2413L21.414 17.2264L21.4084 17.2097L21.4028 17.1948L21.399 17.1836L21.3971 17.1762L21.3952 17.1669L21.3858 17.1501H21.73V16.5505H20.942H20.9232L20.9025 16.5523L20.8837 16.5542ZM19.9696 22.7982V23.4016H20.5282V23.6455H20.9062V23.4016H21.4159H21.4328H21.4517H21.4686L21.4855 23.3997L21.5006 23.3978L21.5156 23.396L21.5307 23.3923L21.5457 23.3885L21.5589 23.3848L21.572 23.3811L21.5852 23.3755L21.5984 23.3699L21.6096 23.3625L21.6209 23.3569L21.6303 23.3494L21.6416 23.342L21.6491 23.3327L21.6585 23.3252L21.6679 23.3159L21.6774 23.3066L21.6849 23.2973L21.6905 23.2861L21.698 23.2749L21.7018 23.26L21.7056 23.247L21.7112 23.234L21.715 23.2209L21.7168 23.2042L21.7187 23.1893L21.7206 23.1725L21.7225 23.1576V23.1408L21.7244 23.1222V22.7982H20.9062V22.4518H20.5282V22.7982H19.9696ZM20.5188 19.4946L20.515 19.5095L20.5113 19.5226L20.5075 19.5356L20.5056 19.5505L20.5037 19.5635L20.5019 19.5784L20.5 19.5933V19.6082V19.6212V19.6362L20.5019 19.6492L20.5037 19.6641L20.5056 19.6771L20.5094 19.692L20.5113 19.7032L20.515 19.7162L20.5188 19.7293L20.5226 19.7405L20.5263 19.7516L20.5301 19.7647L20.5357 19.7758L20.5414 19.787L20.547 19.7982L20.5526 19.8094L20.5602 19.8205L20.5658 19.8317L20.5733 19.841L20.5809 19.8522L20.5884 19.8615L20.5959 19.8727L20.6053 19.8801L20.6147 19.8894L20.6222 19.8987L20.6316 19.9081L20.641 19.9155L20.6504 19.9248L20.6617 19.9323L20.6711 19.9397H20.5282V20.4946H21.73V19.8838H21.1338H21.1169L21.1 19.882L21.0849 19.8801L21.0717 19.8764L21.0567 19.8727L21.0435 19.8671L21.0304 19.8615L21.0191 19.8559L21.0078 19.8503L20.9965 19.8429L20.9871 19.8336L20.9777 19.8261L20.9702 19.8168L20.9608 19.8075L20.9533 19.7982L20.9476 19.787L20.9401 19.7758L20.9344 19.7647L20.9288 19.7516L20.9232 19.7386L20.9194 19.7255L20.9156 19.7106L20.9119 19.6976L20.91 19.6808L20.9081 19.6659L20.9062 19.6492V19.4686H20.5282L20.5226 19.4816L20.5188 19.4946ZM20.5188 18.2767L20.515 18.2898L20.5113 18.3028L20.5075 18.3177L20.5056 18.3308L20.5037 18.3456L20.5019 18.3587L20.5 18.3736V18.3885V18.4015V18.4164L20.5019 18.4313L20.5037 18.4443L20.5056 18.4592L20.5094 18.4723L20.5113 18.4853L20.515 18.4984L20.5188 18.5095L20.5226 18.5226L20.5263 18.5337L20.5301 18.5449L20.5357 18.5579L20.5414 18.5691L20.547 18.5803L20.5526 18.5915L20.5602 18.6008L20.5658 18.612L20.5733 18.6231L20.5809 18.6343L20.5884 18.6436L20.5959 18.6529L20.6053 18.6622L20.6147 18.6715L20.6222 18.6808L20.6316 18.6902L20.641 18.6976L20.6504 18.705L20.6617 18.7144L20.6711 18.7218L20.5282 18.7199V19.2749H21.73V18.6659H21.1338H21.1169L21.1 18.6641L21.0849 18.6604L21.0717 18.6566L21.0567 18.6529L21.0435 18.6492L21.0304 18.6436L21.0191 18.638L21.0078 18.6306L20.9965 18.6231L20.9871 18.6157L20.9777 18.6082L20.9702 18.5989L20.9608 18.5896L20.9533 18.5784L20.9476 18.5673L20.9401 18.5579L20.9344 18.5449L20.9288 18.5337L20.9232 18.5207L20.9194 18.5077L20.9156 18.4927L20.9119 18.4779L20.91 18.463L20.9081 18.4462L20.9062 18.4313V18.2488H20.5282L20.5226 18.2637L20.5188 18.2767ZM21.2203 20.6865H21.2034L21.1883 20.6883H21.1733L21.1564 20.692L21.1413 20.6939L21.1244 20.6958L21.1075 20.6995L21.0924 20.7032L21.0736 20.7051L21.0567 20.7088L21.0416 20.7125L21.0247 20.7162L21.0078 20.7218L20.9909 20.7274L20.9758 20.733L20.9589 20.7386L20.942 20.7442L20.9269 20.7497L20.91 20.7572L20.8968 20.7628L20.8818 20.7702L20.8686 20.7777L20.8536 20.7851L20.8404 20.7926L20.8272 20.8019L20.8141 20.8112L20.8009 20.8186L20.7896 20.828L20.7765 20.8391L20.7652 20.8485L20.752 20.8578L20.7407 20.869L20.7294 20.8801L20.7182 20.8913L20.7069 20.9025L20.6975 20.9137L20.6862 20.9248L20.6768 20.9379L20.6674 20.9509L20.6561 20.9621L20.6467 20.9751L20.6392 20.9881L20.6298 21.003L20.6222 21.0142L20.6147 21.0291L20.6053 21.0421L20.5978 21.057L20.5903 21.0701L20.5846 21.085L20.5771 21.0998L20.5715 21.1129L20.5658 21.1278L20.5602 21.1427L20.5545 21.1576L20.5489 21.1725L20.5451 21.1874L20.5414 21.2041L20.5376 21.2191L20.5338 21.2339L20.5301 21.2488L20.5263 21.2656L20.5244 21.2805L20.5207 21.2973L20.5188 21.314L20.515 21.3308L20.5113 21.3475L20.5094 21.3643L20.5075 21.381L20.5056 21.3978L20.5037 21.4146L20.5019 21.4313L20.5 21.4481V21.4667L20.4981 21.4816V21.5003V21.517V21.5226V21.5338V21.5505V21.5673L20.5 21.584V21.6008L20.5019 21.6175L20.5037 21.6343L20.5056 21.6529L20.5075 21.6697L20.5094 21.6864L20.5113 21.7014L20.515 21.7181L20.5188 21.7368L20.5226 21.7516L20.5263 21.7684L20.5301 21.7852L20.5338 21.8019L20.5395 21.8187L20.5432 21.8354L20.5489 21.8522L20.5545 21.8671L20.5602 21.8839L20.5658 21.8987L20.5715 21.9155L20.579 21.9304L20.5865 21.9472L20.594 21.9621L20.5997 21.9788L20.6091 21.9937L20.6166 22.0086L20.6241 22.0235L20.6316 22.0384L20.641 22.0533L20.6504 22.0682L20.658 22.0831L20.6674 22.0961L20.6768 22.1111L20.6881 22.1241L20.6975 22.1371L20.7087 22.1483L20.7182 22.1595L20.7294 22.1706L20.7407 22.1818L20.752 22.1911L20.7652 22.2023L20.7765 22.2116L20.7896 22.2228L20.8009 22.2302L20.8141 22.2414L20.8272 22.2488L20.8404 22.2582L20.8536 22.2656L20.8686 22.273L20.8818 22.2805L20.8968 22.288L20.91 22.2954L20.925 22.301L20.9382 22.3084L20.9533 22.314L20.9683 22.3196L20.9815 22.3252L20.9965 22.3289L21.0116 22.3345L21.0266 22.3382L21.0416 22.3419L21.0567 22.3457L21.0717 22.3494L21.0887 22.3513L21.1037 22.3531L21.1206 22.3569L21.1357 22.3587L21.1526 22.3606H21.1677L21.1846 22.3624L21.1996 22.3643H21.2166H21.2316H21.2485H21.2655L21.2805 22.3624L21.2974 22.3606H21.3125L21.3294 22.3569L21.3445 22.355L21.3614 22.3531L21.3783 22.3494L21.3934 22.3476L21.4084 22.3419L21.4234 22.3382L21.4404 22.3345L21.4554 22.3289L21.4705 22.3252L21.4855 22.3196L21.5006 22.314L21.5156 22.3084L21.5307 22.301L21.5457 22.2954L21.5607 22.288L21.5739 22.2805L21.589 22.273L21.6021 22.2656L21.6172 22.2582L21.6303 22.2488L21.6454 22.2414L21.6567 22.2302L21.6698 22.2228L21.683 22.2116L21.6962 22.2023L21.7093 22.193L21.7225 22.1818V21.7479H21.414V21.5226V20.7032L21.3971 20.6995L21.3821 20.6958L21.367 20.6939L21.3501 20.692L21.3332 20.6902L21.3181 20.6883L21.3012 20.6865H21.2861L21.2692 20.6846H21.2523H21.2373L21.2203 20.6865Z" fill="#1B1717"/>
<path fill-rule="evenodd" clip-rule="evenodd" d="M22.5648 16.6529H22.4859V16.5746H22.5648V16.6529ZM22.4576 16.6361L22.247 16.6566H22.1511V16.5709H22.247L22.4576 16.5914V16.6361ZM22.4219 16.8205C22.4238 16.8298 22.4275 16.8465 22.4332 16.867C22.437 16.8894 22.4426 16.9024 22.4464 16.9099C22.4539 16.9192 22.4633 16.9247 22.4746 16.9247C22.4859 16.9247 22.4953 16.921 22.5028 16.9136C22.5103 16.9043 22.5159 16.895 22.5159 16.8819C22.5159 16.867 22.5103 16.854 22.5009 16.841C22.4934 16.8316 22.4859 16.8261 22.4746 16.8223C22.4689 16.8205 22.4558 16.8205 22.437 16.8205H22.4219ZM22.358 16.9247L22.3448 16.9955C22.3147 16.9881 22.294 16.9732 22.279 16.9546C22.2639 16.9341 22.2583 16.9061 22.2583 16.867C22.2583 16.8316 22.262 16.8074 22.2714 16.7888C22.279 16.7721 22.2903 16.7609 22.3034 16.7534C22.3147 16.746 22.3392 16.7422 22.373 16.7422L22.4652 16.7441C22.4915 16.7441 22.5103 16.7422 22.5235 16.7404C22.5366 16.7385 22.5498 16.7329 22.5648 16.7255V16.8037C22.5592 16.8056 22.5517 16.8093 22.5404 16.8111C22.5366 16.813 22.5329 16.813 22.531 16.8149C22.546 16.8279 22.5554 16.8428 22.5611 16.8558C22.5686 16.8726 22.5724 16.8875 22.5724 16.9061C22.5724 16.9359 22.563 16.9601 22.546 16.9769C22.5291 16.9936 22.5084 17.003 22.4821 17.003C22.467 17.003 22.4501 16.9992 22.437 16.9918C22.4257 16.9843 22.4144 16.9732 22.4069 16.9583C22.3993 16.9434 22.3937 16.9229 22.3899 16.895C22.3824 16.8596 22.3749 16.8335 22.3692 16.8205H22.3617C22.3467 16.8205 22.3354 16.8242 22.3279 16.8316C22.3222 16.8391 22.3185 16.8521 22.3185 16.8726C22.3185 16.8875 22.3222 16.8987 22.3279 16.9061C22.3335 16.9136 22.3429 16.9192 22.358 16.9247ZM22.2639 17.2972V17.029H22.3279V17.124H22.5648V17.2022H22.3279V17.2972H22.2639ZM22.2639 17.61V17.5318H22.3749V17.4182H22.2639V17.34H22.5648V17.4182H22.4388V17.5318H22.5648V17.61H22.2639ZM22.4144 17.8931C22.4445 17.8931 22.467 17.8856 22.4821 17.8707C22.499 17.8577 22.5065 17.841 22.5065 17.8205C22.5065 17.8 22.499 17.7832 22.4821 17.7683C22.467 17.7553 22.4445 17.7478 22.4144 17.7478C22.3843 17.7478 22.3617 17.7553 22.3467 17.7683C22.3316 17.7832 22.3222 17.8 22.3222 17.8205C22.3222 17.841 22.3316 17.8577 22.3467 17.8707C22.3617 17.8856 22.3862 17.8931 22.4144 17.8931ZM22.4106 17.9732C22.3843 17.9732 22.3598 17.9657 22.3335 17.9546C22.3091 17.9396 22.2903 17.9229 22.279 17.8987C22.2639 17.8764 22.2583 17.8484 22.2583 17.8205C22.2583 17.7758 22.2733 17.7385 22.3034 17.7106C22.3316 17.6827 22.3692 17.6678 22.4144 17.6678C22.4595 17.6678 22.4971 17.6827 22.5272 17.7106C22.5573 17.7404 22.5724 17.7758 22.5724 17.8205C22.5724 17.8466 22.5648 17.8726 22.5536 17.8968C22.5404 17.9229 22.5216 17.9396 22.4971 17.9546C22.4746 17.9657 22.4445 17.9732 22.4106 17.9732ZM22.2639 18.3661V18.2693L22.4727 18.1966L22.2639 18.1221V18.0253H22.5648V18.0924H22.3674L22.5648 18.1631V18.2302L22.3674 18.2991H22.5648V18.3661H22.2639ZM22.3899 18.502C22.3655 18.5039 22.3486 18.5095 22.3373 18.5207C22.326 18.5319 22.3185 18.5449 22.3185 18.5598C22.3185 18.5784 22.326 18.5914 22.3373 18.6026C22.3504 18.6138 22.3674 18.6194 22.3899 18.6194V18.502ZM22.4689 18.5076L22.4821 18.4294C22.5103 18.4387 22.5329 18.4555 22.5498 18.476C22.563 18.4983 22.5724 18.5244 22.5724 18.5579C22.5724 18.6101 22.5554 18.6473 22.5197 18.6715C22.4934 18.692 22.4576 18.7013 22.4181 18.7013C22.3674 18.7013 22.3279 18.6883 22.2997 18.6622C22.2714 18.638 22.2583 18.6045 22.2583 18.5654C22.2583 18.5225 22.2733 18.4872 22.3034 18.4611C22.3316 18.4369 22.3768 18.4238 22.437 18.4257V18.6212C22.4614 18.6212 22.4783 18.6138 22.4934 18.6026C22.5047 18.5896 22.5122 18.5747 22.5122 18.5579C22.5122 18.5449 22.5084 18.5356 22.5009 18.5262C22.4953 18.5169 22.484 18.5114 22.4689 18.5076ZM22.4106 18.9527C22.4426 18.9527 22.467 18.9452 22.484 18.9322C22.5009 18.9192 22.5084 18.9024 22.5084 18.8838C22.5084 18.8652 22.5009 18.8503 22.4859 18.8391C22.4708 18.8261 22.4464 18.8205 22.4144 18.8205C22.3824 18.8205 22.358 18.8279 22.3429 18.8391C22.3279 18.8521 22.3203 18.867 22.3203 18.8857C22.3203 18.9043 22.3279 18.921 22.3429 18.9322C22.358 18.9452 22.3805 18.9527 22.4106 18.9527ZM22.2639 19.0291V18.9564H22.3091C22.294 18.9471 22.2827 18.9341 22.2714 18.9173C22.262 18.9005 22.2583 18.8838 22.2583 18.8633C22.2583 18.8298 22.2714 18.8 22.2997 18.7758C22.326 18.7516 22.3636 18.7404 22.4125 18.7404C22.4633 18.7404 22.5028 18.7516 22.5291 18.7758C22.5573 18.8 22.5724 18.8298 22.5724 18.8633C22.5724 18.8801 22.5686 18.895 22.5611 18.9099C22.5554 18.9229 22.5442 18.9359 22.5272 18.9509H22.6777V19.0291H22.2639ZM22.2639 19.5375V19.4629H22.452L22.2639 19.3419V19.2656H22.5648V19.34H22.373L22.5648 19.4629V19.5375H22.2639ZM22.2639 20.0458V19.9713H22.452L22.2639 19.8503V19.774H22.5648V19.8484H22.373L22.5648 19.9713V20.0458H22.2639ZM22.2639 20.3326V20.2544H22.3862C22.3862 20.2413 22.3824 20.232 22.3749 20.2265C22.3674 20.2209 22.3542 20.2153 22.3316 20.2078C22.3034 20.1985 22.2846 20.1873 22.2752 20.1743C22.2677 20.1631 22.262 20.1464 22.262 20.1278C22.262 20.1222 22.2639 20.111 22.2639 20.0961H22.3166C22.3166 20.1166 22.3185 20.1315 22.3222 20.1352C22.326 20.1408 22.3392 20.1483 22.3598 20.1557C22.3862 20.1631 22.4031 20.1762 22.4106 20.1948C22.4181 20.1688 22.4388 20.1483 22.4746 20.1315C22.4783 20.1315 22.4783 20.1296 22.4821 20.1278L22.5648 20.0849V20.1688L22.4764 20.2078C22.4595 20.2153 22.4482 20.2227 22.4426 20.2283C22.4388 20.2339 22.4351 20.2432 22.4351 20.2544H22.5648V20.3326H22.2639ZM22.1436 20.4946V20.4574C22.1699 20.4592 22.1906 20.4685 22.2037 20.4835C22.2188 20.5002 22.2263 20.5188 22.2263 20.543C22.2263 20.5691 22.2188 20.5896 22.2037 20.6045C22.1906 20.6194 22.1699 20.6287 22.1436 20.6306V20.5933C22.1567 20.5914 22.168 20.5859 22.1736 20.5784C22.1812 20.571 22.1849 20.5598 22.1849 20.543C22.1849 20.53 22.1812 20.517 22.1736 20.5095C22.168 20.502 22.1567 20.4965 22.1436 20.4946ZM22.2639 20.6808V20.6064H22.452L22.2639 20.4872V20.409H22.5648V20.4853H22.373L22.5648 20.6064V20.6808H22.2639ZM22.4144 20.9658C22.4445 20.9658 22.467 20.9583 22.4821 20.9453C22.499 20.9304 22.5065 20.9136 22.5065 20.8931C22.5065 20.8726 22.499 20.8559 22.4821 20.8429C22.467 20.8279 22.4445 20.8224 22.4144 20.8224C22.3843 20.8224 22.3617 20.8279 22.3467 20.8429C22.3316 20.8559 22.3222 20.8726 22.3222 20.8931C22.3222 20.9136 22.3316 20.9304 22.3467 20.9453C22.3617 20.9583 22.3862 20.9658 22.4144 20.9658ZM22.4106 21.0458C22.3843 21.0458 22.3598 21.0403 22.3335 21.0272C22.3091 21.0142 22.2903 20.9956 22.279 20.9732C22.2639 20.949 22.2583 20.9229 22.2583 20.8931C22.2583 20.8484 22.2733 20.8131 22.3034 20.7833C22.3316 20.7554 22.3692 20.7404 22.4144 20.7404C22.4595 20.7404 22.4971 20.7554 22.5272 20.7833C22.5573 20.8131 22.5724 20.8503 22.5724 20.8931C22.5724 20.9211 22.5648 20.9453 22.5536 20.9714C22.5404 20.9956 22.5216 21.0142 22.4971 21.0272C22.4746 21.0403 22.4445 21.0458 22.4106 21.0458ZM22.4106 21.301C22.4426 21.301 22.467 21.2954 22.484 21.2805C22.5009 21.2674 22.5084 21.2526 22.5084 21.2339C22.5084 21.2153 22.5009 21.2004 22.4859 21.1892C22.4708 21.1762 22.4464 21.1706 22.4144 21.1706C22.3824 21.1706 22.358 21.1762 22.3429 21.1892C22.3279 21.2004 22.3203 21.2172 22.3203 21.2358C22.3203 21.2544 22.3279 21.2693 22.3429 21.2823C22.358 21.2954 22.3805 21.301 22.4106 21.301ZM22.2639 21.3773V21.3047H22.3091C22.294 21.2954 22.2827 21.2823 22.2714 21.2674C22.262 21.2507 22.2583 21.2321 22.2583 21.2134C22.2583 21.178 22.2714 21.1501 22.2997 21.1259C22.326 21.1017 22.3636 21.0905 22.4125 21.0905C22.4633 21.0905 22.5028 21.1017 22.5291 21.1259C22.5573 21.1501 22.5724 21.1799 22.5724 21.2134C22.5724 21.2302 22.5686 21.2451 22.5611 21.2581C22.5554 21.2712 22.5442 21.2861 22.5272 21.301H22.6777V21.3773H22.2639ZM22.2639 21.6902V21.422H22.3279V21.517H22.5648V21.5952H22.3279V21.6902H22.2639ZM22.3542 21.7144L22.3674 21.7907C22.3523 21.7945 22.341 21.8 22.3316 21.8093C22.3241 21.8187 22.3203 21.8298 22.3203 21.8447C22.3203 21.8634 22.3279 21.8801 22.341 21.8913C22.3542 21.9024 22.3768 21.9081 22.4087 21.9081C22.4445 21.9081 22.4708 21.9024 22.484 21.8913C22.499 21.8801 22.5065 21.8634 22.5065 21.8429C22.5065 21.828 22.5028 21.8168 22.4934 21.8075C22.4859 21.7982 22.4708 21.7907 22.4501 21.787L22.4633 21.7106C22.499 21.7181 22.5254 21.733 22.5442 21.7572C22.563 21.7777 22.5724 21.8093 22.5724 21.8466C22.5724 21.8913 22.5573 21.9248 22.5291 21.9509C22.5028 21.9769 22.4633 21.99 22.4144 21.99C22.3655 21.99 22.3279 21.9769 22.2997 21.9509C22.2714 21.9248 22.2583 21.8894 22.2583 21.8447C22.2583 21.8093 22.2658 21.7814 22.2827 21.7609C22.2978 21.7386 22.3222 21.7237 22.3542 21.7144ZM22.3147 22.2879V22.3438C22.3147 22.3643 22.3185 22.3792 22.3241 22.3866C22.3297 22.3959 22.3392 22.3997 22.3542 22.3997C22.3674 22.3997 22.3787 22.3959 22.3843 22.3848C22.3899 22.3754 22.3937 22.3606 22.3937 22.3382V22.2879H22.3147ZM22.2639 22.2097H22.5648V22.2879H22.4388V22.2935C22.4388 22.3122 22.4426 22.3233 22.4464 22.3326C22.4501 22.3401 22.4614 22.3494 22.4746 22.3587L22.4802 22.3624L22.5648 22.4146V22.5058L22.4764 22.4499C22.452 22.4332 22.4388 22.4202 22.4351 22.4071C22.4332 22.4276 22.4257 22.4462 22.4087 22.4593C22.3937 22.4742 22.3749 22.4816 22.3504 22.4816C22.3297 22.4816 22.3147 22.476 22.2997 22.4667C22.2865 22.4574 22.2771 22.4462 22.2714 22.4313C22.2677 22.4164 22.2639 22.3922 22.2639 22.3643V22.2097ZM22.2639 22.8038V22.5431H22.5648V22.6213H22.3279V22.7274H22.4633C22.4971 22.7274 22.5216 22.7311 22.5348 22.7386C22.5498 22.746 22.5592 22.7554 22.563 22.7647C22.5667 22.774 22.5686 22.7889 22.5686 22.8112C22.5686 22.8224 22.5667 22.8392 22.5648 22.8596H22.5065C22.5065 22.8578 22.5065 22.854 22.5065 22.8466C22.5065 22.8392 22.5065 22.8317 22.5065 22.828C22.5065 22.8168 22.5028 22.8112 22.4971 22.8075C22.4896 22.8056 22.4708 22.8038 22.4388 22.8038H22.2639ZM22.499 22.9881H22.3297V23.0831C22.4125 23.0868 22.4689 23.0999 22.499 23.1222V22.9881ZM22.5648 22.9434V23.1669H22.642V23.2302H22.499V23.1986C22.484 23.1855 22.4614 23.1744 22.4294 23.165C22.3975 23.1557 22.3429 23.152 22.2639 23.1501V22.9118H22.499V22.8801H22.642V22.9434H22.5648ZM22.2263 23.5207H22.1567V23.4537H22.2263V23.5207ZM22.2263 23.6418H22.1567V23.5729H22.2263V23.6418ZM22.3899 23.4872C22.3655 23.4872 22.3486 23.4928 22.3373 23.504C22.326 23.5151 22.3185 23.5282 22.3185 23.5449C22.3185 23.5617 22.326 23.5766 22.3373 23.5878C22.3504 23.5989 22.3674 23.6045 22.3899 23.6045V23.4872ZM22.4689 23.4909L22.4821 23.4127C22.5103 23.4239 22.5329 23.4388 22.5498 23.4611C22.563 23.4835 22.5724 23.5096 22.5724 23.5431C22.5724 23.5933 22.5554 23.6306 22.5197 23.6567C22.4934 23.6753 22.4576 23.6846 22.4181 23.6846C22.3674 23.6846 22.3279 23.6734 22.2997 23.6474C22.2714 23.6213 22.2583 23.5896 22.2583 23.5505C22.2583 23.5058 22.2733 23.4723 22.3034 23.4462C22.3316 23.4202 22.3768 23.409 22.437 23.409V23.6045C22.4614 23.6045 22.4783 23.5989 22.4934 23.5859C22.5047 23.5747 22.5122 23.5598 22.5122 23.5412C22.5122 23.5282 22.5084 23.5189 22.5009 23.5114C22.4953 23.5021 22.484 23.4965 22.4689 23.4909ZM22.3542 23.7218L22.3674 23.8001C22.3523 23.8019 22.341 23.8075 22.3316 23.8168C22.3241 23.8261 22.3203 23.8373 22.3203 23.8522C22.3203 23.8727 22.3279 23.8876 22.341 23.8988C22.3542 23.9099 22.3768 23.9174 22.4087 23.9174C22.4445 23.9174 22.4708 23.9099 22.484 23.8988C22.499 23.8876 22.5065 23.8708 22.5065 23.8522C22.5065 23.8373 22.5028 23.8243 22.4934 23.815C22.4859 23.8056 22.4708 23.7982 22.4501 23.7945L22.4633 23.7181C22.499 23.7256 22.5254 23.7405 22.5442 23.7647C22.563 23.787 22.5724 23.8168 22.5724 23.8559C22.5724 23.8988 22.5573 23.9323 22.5291 23.9583C22.5028 23.9844 22.4633 23.9975 22.4144 23.9975C22.3655 23.9975 22.3279 23.9844 22.2997 23.9583C22.2714 23.9323 22.2583 23.8969 22.2583 23.8541C22.2583 23.8187 22.2658 23.7889 22.2827 23.7684C22.2978 23.7461 22.3222 23.7312 22.3542 23.7218ZM22.3843 24.3084H22.4934V24.2321C22.4934 24.2023 22.4934 24.1837 22.4915 24.1744C22.4896 24.1632 22.484 24.1539 22.4746 24.1446C22.467 24.1371 22.4539 24.1334 22.4388 24.1334C22.4275 24.1334 22.4163 24.1371 22.4087 24.1427C22.3993 24.1483 22.3937 24.1576 22.3899 24.1688C22.3862 24.1799 22.3843 24.2042 22.3843 24.2414V24.3084ZM22.2188 24.3084H22.3147V24.2544C22.3147 24.2228 22.3147 24.2023 22.3128 24.1948C22.3109 24.1799 22.3072 24.1688 22.2997 24.1613C22.2903 24.1539 22.2808 24.1502 22.2658 24.1502C22.2545 24.1502 22.2432 24.152 22.2357 24.1595C22.2282 24.1669 22.2225 24.1762 22.2207 24.1911C22.2207 24.1986 22.2188 24.2228 22.2188 24.26V24.3084ZM22.1511 24.3904V24.2265C22.1511 24.1948 22.153 24.1706 22.1548 24.1557C22.1567 24.139 22.1642 24.1241 22.1718 24.1129C22.1812 24.0999 22.1925 24.0906 22.2056 24.0813C22.2207 24.0719 22.2357 24.0682 22.2545 24.0682C22.2733 24.0682 22.2921 24.0738 22.3072 24.085C22.3241 24.0943 22.3354 24.1073 22.3448 24.1259C22.3523 24.1017 22.3636 24.0831 22.3824 24.0682C22.3993 24.0552 22.42 24.0496 22.4445 24.0496C22.4633 24.0496 22.4802 24.0533 22.499 24.0608C22.5159 24.0701 22.531 24.0831 22.5423 24.0961C22.5517 24.1129 22.5592 24.1297 22.5611 24.152C22.563 24.1669 22.563 24.1986 22.5648 24.2526V24.3904H22.1511Z" fill="#1B1717"/>
</svg>
