<svg width="36" height="35" viewBox="0 0 36 35" fill="none" xmlns="http://www.w3.org/2000/svg">
<g clip-path="url(#clip0)">
<path d="M34.8832 4.78562C34.3683 4.26986 33.5329 4.26897 33.0181 4.78343L17.1937 20.566L11.4843 14.3651C10.9909 13.8295 10.1568 13.7948 9.62044 14.2881C9.08444 14.7814 9.05013 15.6159 9.54347 16.1519L16.1828 23.3624C16.426 23.6266 16.7662 23.7801 17.125 23.7876C17.1347 23.788 17.144 23.788 17.1532 23.788C17.5019 23.788 17.8373 23.6495 18.0845 23.4032L34.8806 6.65117C35.3968 6.13678 35.3977 5.30138 34.8832 4.78562Z" fill="#E6330F"/>
<path d="M34.5661 16.1811C33.8375 16.1811 33.2471 16.7716 33.2471 17.5003C33.2471 25.6955 26.5804 32.3623 18.3853 32.3623C10.1906 32.3623 3.52345 25.6955 3.52345 17.5003C3.52345 9.30549 10.1906 2.63823 18.3853 2.63823C19.1138 2.63823 19.7044 2.04774 19.7044 1.31915C19.7044 0.590497 19.1138 0 18.3853 0C8.73564 0 0.885254 7.85051 0.885254 17.5003C0.885254 27.1496 8.73564 35.0005 18.3853 35.0005C28.0345 35.0005 35.8853 27.1496 35.8853 17.5003C35.8853 16.7717 35.2948 16.1811 34.5661 16.1811Z" fill="#034899"/>
</g>
<defs>
<clipPath id="clip0">
<rect width="35" height="35.0005" fill="white" transform="translate(0.885254)"/>
</clipPath>
</defs>
</svg>
