<svg width="61" height="60" viewBox="0 0 61 60" fill="none" xmlns="http://www.w3.org/2000/svg">
<g clip-path="url(#clip0)">
<path d="M30.1087 3.87085H37.8787V5.80633H30.1087V3.87085Z" fill="#034899"/>
<path d="M39.8212 3.87085H41.7637V5.80633H39.8212V3.87085Z" fill="#034899"/>
<path d="M26.2237 3.87085H28.1662V5.80633H26.2237V3.87085Z" fill="#034899"/>
<path d="M31.08 54.1936H36.9074V56.1291H31.08V54.1936Z" fill="#034899"/>
<path d="M57.3036 29.0323C56.9617 29.0323 56.6373 29.1017 56.3324 29.2104V4.83871C56.3324 2.1708 54.1537 0 51.4762 0H16.5112C13.8336 0 11.655 2.1708 11.655 4.83871V17.4194H20.3962C20.9312 17.4194 21.3675 17.8531 21.3675 18.3871V26.129C21.3675 26.663 20.9312 27.0968 20.3962 27.0968H11.655V29.9216L8.11097 27.0968H2.91374C2.3788 27.0968 1.9425 26.663 1.9425 26.129V18.3871C1.9425 17.8531 2.3788 17.4194 2.91374 17.4194H9.71248V15.4839H2.91374C1.30749 15.4839 0 16.7866 0 18.3871V26.129C0 27.7295 1.30749 29.0323 2.91374 29.0323H7.42901L13.5975 33.9494V29.0323H15.54V48.3871H36.9482C37.128 48.8615 37.3755 49.3104 37.6933 49.705L38.1884 50.3226H13.5975V35.9477H11.655V55.1613C11.655 57.8292 13.8336 60 16.5112 60H56.3324V54.3977C56.3324 53.8231 56.5012 53.2664 56.8218 52.7873L59.4017 48.9319C59.9347 48.1343 60.2174 47.2062 60.2174 46.2484V31.9355C60.2174 30.335 58.9099 29.0323 57.3036 29.0323ZM16.5112 1.93548H51.4762C53.0824 1.93548 54.3899 3.23825 54.3899 4.83871V7.74194H13.5975V4.83871C13.5975 3.23825 14.905 1.93548 16.5112 1.93548ZM13.5975 9.67742H54.3899V27.2749C54.085 27.1662 53.7606 27.0968 53.4187 27.0968C53.0767 27.0968 52.7523 27.1662 52.4474 27.2749V11.6129H15.54V15.4839H13.5975V9.67742ZM17.4825 29.0323H20.3962C22.0025 29.0323 23.31 27.7295 23.31 26.129V18.3871C23.31 16.7866 22.0025 15.4839 20.3962 15.4839H17.4825V13.5484H50.5049V25.3394C50.2 25.2308 49.8756 25.1613 49.5337 25.1613C49.1917 25.1613 48.8674 25.2308 48.5624 25.3394V20.3226C48.5624 18.7221 47.2549 17.4194 45.6487 17.4194C44.0424 17.4194 42.7349 18.7221 42.7349 20.3226V31.4951C42.4893 31.3888 42.2346 31.2966 41.9704 31.2309L37.8777 30.2107V29.7472C39.6889 28.4884 40.7924 26.4088 40.7924 24.1935V22.5019C40.7924 18.7424 37.836 15.5963 34.2024 15.4867C32.33 15.4423 30.5905 16.11 29.2598 17.3962C27.9281 18.6834 27.195 20.4095 27.195 22.2581V24.1935C27.195 26.4078 28.2985 28.4874 30.1087 29.7463V30.2107L26.0169 31.2309C23.8511 31.771 22.3387 33.7009 22.3387 35.9255V40.6452H35.471L36.5133 46.4516H17.4825V29.0323ZM34.9649 37.0123V37.5491C34.9649 37.7353 34.9815 37.9201 35.0143 38.102L35.1233 38.7097H24.2812V35.9255C24.2812 34.5911 25.1894 33.4325 26.4879 33.1083L32.0512 31.7233V28.6585L31.5665 28.3792C30.0679 27.515 29.1374 25.9102 29.1374 24.1935V22.2581C29.1374 20.9383 29.662 19.704 30.6128 18.785C31.5637 17.8664 32.8038 17.3678 34.144 17.4222C36.7386 17.4997 38.8499 19.7787 38.8499 22.5019V24.1935C38.8499 25.9112 37.9185 27.5159 36.419 28.3811L35.9333 28.6608L35.9362 31.7233L41.4976 33.1083C41.9629 33.2255 42.3826 33.4537 42.734 33.7684V41.2637C42.4931 41.0643 42.3143 40.7893 42.2337 40.4689L41.1751 36.2516C40.8256 34.8496 39.5665 33.871 38.1177 33.871C36.3791 33.871 34.9649 35.2801 34.9649 37.0123ZM16.5112 58.0645C14.905 58.0645 13.5975 56.7617 13.5975 55.1613V52.2581H39.7425L40.1531 52.7698C40.5662 53.283 40.7924 53.9275 40.7924 54.5834V58.0645H16.5112ZM58.2749 46.2475C58.2749 46.8221 58.1061 47.3787 57.7855 47.8579L55.2056 51.7132C54.6726 52.5118 54.3899 53.4399 54.3899 54.3977V58.0645H42.7349V54.5834C42.7349 53.4881 42.357 52.4149 41.6702 51.5601L39.2094 48.4953C38.9277 48.1461 38.7295 47.7289 38.6422 47.3234L36.9269 37.7613C36.9131 37.6904 36.9074 37.62 36.9074 37.5491V37.0123C36.9074 36.3475 37.4504 35.8064 38.1177 35.8064C38.674 35.8064 39.1568 36.1821 39.2919 36.7189L40.3504 40.9362C40.735 42.4753 42.1151 43.5484 43.7062 43.5484H44.6774V20.3226C44.6774 19.7886 45.1137 19.3548 45.6487 19.3548C46.1836 19.3548 46.6199 19.7886 46.6199 20.3226V39.6774H48.5624V28.0645C48.5624 27.5306 48.9987 27.0968 49.5337 27.0968C50.0686 27.0968 50.5049 27.5306 50.5049 28.0645V39.6774H52.4474V30C52.4474 29.466 52.8837 29.0323 53.4187 29.0323C53.9536 29.0323 54.3899 29.466 54.3899 30V39.6774H56.3324V31.9355C56.3324 31.4015 56.7687 30.9677 57.3036 30.9677C57.8386 30.9677 58.2749 31.4015 58.2749 31.9355V46.2475Z" fill="#034899"/>
<path d="M3.88501 19.3547H5.82751V21.2902H3.88501V19.3547Z" fill="#E6330F"/>
<path d="M7.76996 19.3547H19.4249V21.2902H7.76996V19.3547Z" fill="#E6330F"/>
<path d="M3.88501 23.2258H19.425V25.1613H3.88501V23.2258Z" fill="#E6330F"/>
<path d="M19.425 42.5806H21.3675V44.5161H19.425V42.5806Z" fill="#034899"/>
<path d="M23.3099 42.5806H33.9937V44.5161H23.3099V42.5806Z" fill="#034899"/>
</g>
<defs>
<clipPath id="clip0">
<rect width="60.2174" height="60" fill="white"/>
</clipPath>
</defs>
</svg>
