<svg width="60" height="60" viewBox="0 0 60 60" fill="none" xmlns="http://www.w3.org/2000/svg">
<g clip-path="url(#clip0)">
<path d="M14.8341 45.6018H9.10106C8.61691 45.6018 8.22461 45.9941 8.22461 46.4783C8.22461 46.9624 8.61691 47.3547 9.10106 47.3547H14.8342C15.3184 47.3547 15.7107 46.9624 15.7107 46.4783C15.7107 45.9941 15.3183 45.6018 14.8341 45.6018Z" fill="#E6330F"/>
<path d="M39.4408 45.6018H33.7076C33.2235 45.6018 32.8312 45.9941 32.8312 46.4783C32.8312 46.9624 33.2235 47.3547 33.7076 47.3547H39.4408C39.925 47.3547 40.3173 46.9624 40.3173 46.4783C40.3173 45.9941 39.9249 45.6018 39.4408 45.6018Z" fill="#E6330F"/>
<path d="M27.1376 20.9954H21.4044C20.9203 20.9954 20.528 21.3878 20.528 21.8718C20.528 22.3559 20.9203 22.7483 21.4044 22.7483H27.1376C27.6217 22.7483 28.014 22.356 28.014 21.8718C28.014 21.3877 27.6216 20.9954 27.1376 20.9954Z" fill="#E6330F"/>
<path d="M58.229 49.2132H55.398C55.4517 49.0151 55.4831 48.8078 55.4831 48.5929V26.9796C55.4831 25.6712 54.4186 24.6066 53.11 24.6066C51.9813 24.6066 44.2493 24.6065 43.0948 24.6065C43.1486 24.4084 43.1799 24.2012 43.1799 23.9863V11.5248C43.1799 11.0407 42.7876 11.8325 42.3034 11.8325C41.8193 11.8325 41.4268 11.0407 41.4268 11.5248L41.427 23.9863C41.427 24.3282 41.1487 24.6065 40.8068 24.6065C40.4427 24.6065 19.5576 24.6065 19.1933 24.6065C18.8514 24.6065 18.5732 24.3282 18.5732 23.9863V2.37297C18.5732 2.03103 18.8514 1.75291 19.1933 1.75291H25.11V10.2039C25.11 11.4637 26.5114 12.2064 27.5528 11.5248L30 9.92332L32.4471 11.5248C33.4954 12.2106 34.8899 11.4571 34.8899 10.2039V1.75291H40.8067C41.1486 1.75291 41.4268 2.03103 41.4268 2.37297V11.3325C41.4268 11.8166 41.8193 12.3325 42.3034 12.3325C42.7876 12.3325 43.1799 11.8166 43.1799 11.3325L43.1798 2.37297C43.1798 1.06448 42.1153 0 40.8067 0C39.9823 0 20.0185 0 19.1932 0C17.8847 0 16.8201 1.06448 16.8201 2.37297V23.9864C16.8201 24.2012 16.8513 24.4085 16.9052 24.6066C16.6024 24.6066 12.9433 24.6067 6.88992 24.6067C5.58143 24.6067 4.51683 25.6712 4.51683 26.9797V48.593C4.51683 48.8079 4.54815 49.0151 4.60191 49.2133H1.77096C0.794478 49.2132 6.10352e-05 50.0076 6.10352e-05 50.9842V53.4547C6.10352e-05 54.4311 0.794595 55.416 1.77108 55.416H3.22331V57.9962C3.22331 59.0087 4.04705 59.8324 5.05953 59.8324H7.74686C8.75933 59.8324 9.58308 59.0087 9.58308 57.9962V55.3169H26.8202V57.9961C26.8202 59.0086 27.644 59.8324 28.6565 59.8324H31.3438C32.3561 59.8324 33.1799 59.0919 33.1799 58.0794V55.3169H42.3044C42.7886 55.3169 42.0001 54.8167 42.0001 54.3325C42.0001 53.8484 42.6839 53.4799 42.1997 53.4799C40.5364 53.4799 3.27987 53.4726 1.77108 53.4726C1.76115 53.4726 1.75308 53.4646 1.75308 53.4547V50.9842C1.75308 50.9743 1.76115 50.9662 1.77108 50.9662L58.1038 50.9842V53.4547C57.8567 53.4547 58.01 53.4547 58.0001 53.4547C57.4688 53.4547 43.014 53.4726 42.3044 53.4726C41.8203 53.4726 42.0001 53.8484 42.0001 54.3325C42.0001 54.8167 41.8203 55.3169 42.3044 55.3169L50.5001 55.416L50.417 57.9962C50.417 59.0087 51.2408 59.8324 52.2533 59.8324H54.9406C55.9531 59.8324 56.7768 59.0087 56.7768 57.9962V55.416H58.229C59.2055 55.416 60.0001 54.4311 60.0001 53.4547V50.9842C60.0001 50.0076 59.2057 49.2132 58.229 49.2132ZM26.8629 1.75291H33.1371V9.88148L30.8644 8.3942C30.3393 8.05063 29.6604 8.05063 29.1357 8.3942L26.8629 9.88148V1.75291ZM28.5731 55.3169H31.427V57.9961C31.427 58.0421 31.427 57.1538 31.3438 58.0794H28.6565C28.6104 58.0794 28.5731 58.0421 28.5731 57.9961V55.3169ZM4.97621 55.416H7.83018V57.9961C7.83018 58.0421 7.7929 58.0794 7.74686 58.0794H5.05953C5.01349 58.0794 4.97621 58.0421 4.97621 57.9961V55.416ZM39.1662 26.3596H45.4404V34.4882L43.1677 33.0009C42.6427 32.6573 41.9642 32.6571 41.439 33.0009L39.1662 34.4882V26.3596ZM14.5597 26.5994H20.8338V34.4882L18.561 33.0008C18.036 32.6573 17.3575 32.6573 16.8324 33.0009L14.5597 34.4882V26.5994ZM29.1237 48.593C29.1237 48.9292 28.8397 49.2133 28.5035 49.2133H6.89004C6.55383 49.2133 6.66559 49.0037 6.66559 48.6675L6.48223 26.9797C6.87796 26.6675 6.54798 26.5994 6.88992 26.5994H12.8068V34.8106C12.8068 36.0632 14.2008 36.8176 15.2498 36.1315L17.6967 34.5302L20.1439 36.1316C21.1901 36.8164 22.5866 36.0669 22.5866 34.8106V26.5994H28.5001C28.842 26.5994 29.1236 26.6378 29.1236 26.9797L29.1237 48.593ZM53.7302 48.593C53.7302 48.9351 53.4519 49.2133 53.11 49.2133H31.4966C31.1547 49.2133 30.8765 48.9351 30.8765 48.593V26.9797C30.8765 26.6378 31.1581 26.5994 31.5001 26.5994L37.4133 26.3596V34.8106C37.4133 36.0636 38.8077 36.8175 39.8561 36.1315L42.3032 34.5302L44.7504 36.1315C45.7973 36.8166 47.1932 36.0663 47.1932 34.8106V26.3596H53.1099C53.4518 26.3596 53.73 26.6378 53.73 26.9797L53.7302 48.593ZM55.0239 57.9961C55.0239 58.0421 54.9866 58.0794 54.9406 58.0794H52.2533C52.2072 58.0794 52.1699 58.0421 52.1699 57.9961V55.416H55.0239V57.9961Z" fill="#034899"/>
<path fill-rule="evenodd" clip-rule="evenodd" d="M26 19.0743V15H23V20L26 19.0743Z" fill="#F44336"/>
<path fill-rule="evenodd" clip-rule="evenodd" d="M24.9584 17.1171C24.9584 17.1171 24.8274 17.1171 24.5748 17.1171C24.3222 17.1171 23.9511 17.3559 23.9511 17.9219C23.9511 18.3848 24.2412 18.5558 24.5281 18.5558C24.6902 18.5558 24.9584 18.2904 24.9584 17.975V17.1171ZM25.8222 18.7297H24.9584V18.5145C24.8119 18.6413 24.5031 18.8211 24.157 18.8211C23.8139 18.8211 23.1653 18.5911 23.1653 17.9131C23.1653 17.238 23.9948 16.9019 24.4751 16.9019C24.9553 16.9019 24.9584 16.9019 24.9584 16.9019C24.9584 16.6542 24.9584 16.5953 24.9584 16.4213C24.9584 16.2503 24.8274 16.097 24.5936 16.097C24.3566 16.097 24.0696 16.2444 24.0696 16.6218H23.3805C23.3805 16.3712 23.5613 15.8848 24.5998 15.8848C25.6414 15.8848 25.7505 16.327 25.7505 16.5245C25.7505 16.725 25.7505 18.3612 25.7505 18.4555C25.7505 18.6177 25.8222 18.7297 25.8222 18.7297Z" fill="white"/>
<path fill-rule="evenodd" clip-rule="evenodd" d="M37 44.0743V40H34V45L37 44.0743Z" fill="#F44336"/>
<path fill-rule="evenodd" clip-rule="evenodd" d="M35.9584 42.1171C35.9584 42.1171 35.8274 42.1171 35.5748 42.1171C35.3222 42.1171 34.9511 42.3559 34.9511 42.9219C34.9511 43.3848 35.2412 43.5558 35.5281 43.5558C35.6902 43.5558 35.9584 43.2904 35.9584 42.975V42.1171ZM36.8222 43.7297H35.9584V43.5145C35.8119 43.6413 35.5031 43.8211 35.157 43.8211C34.8139 43.8211 34.1653 43.5911 34.1653 42.9131C34.1653 42.238 34.9948 41.9019 35.4751 41.9019C35.9553 41.9019 35.9584 41.9019 35.9584 41.9019C35.9584 41.6542 35.9584 41.5953 35.9584 41.4213C35.9584 41.2503 35.8274 41.097 35.5936 41.097C35.3566 41.097 35.0696 41.2444 35.0696 41.6218H34.3805C34.3805 41.3712 34.5613 40.8848 35.5998 40.8848C36.6414 40.8848 36.7505 41.327 36.7505 41.5245C36.7505 41.725 36.7505 43.3612 36.7505 43.4555C36.7505 43.6177 36.8222 43.7297 36.8222 43.7297Z" fill="white"/>
<path fill-rule="evenodd" clip-rule="evenodd" d="M13 44.0743V40H10V45L13 44.0743Z" fill="#F44336"/>
<path fill-rule="evenodd" clip-rule="evenodd" d="M11.9584 42.1168C11.9584 42.1168 11.8274 42.1168 11.5748 42.1168C11.3222 42.1168 10.9511 42.3556 10.9511 42.9217C10.9511 43.3845 11.2412 43.5555 11.5281 43.5555C11.6902 43.5555 11.9584 43.2902 11.9584 42.9747V42.1168ZM12.8222 43.7295H11.9584V43.5142C11.8119 43.641 11.5031 43.8208 11.157 43.8208C10.8139 43.8208 10.1653 43.5909 10.1653 42.9128C10.1653 42.2377 10.9948 41.9016 11.4751 41.9016C11.9553 41.9016 11.9584 41.9016 11.9584 41.9016C11.9584 41.654 11.9584 41.595 11.9584 41.4211C11.9584 41.2501 11.8274 41.0968 11.5936 41.0968C11.3566 41.0968 11.0696 41.2442 11.0696 41.6216H10.3805C10.3805 41.371 10.5613 40.8845 11.5998 40.8845C12.6414 40.8845 12.7505 41.3267 12.7505 41.5243C12.7505 41.7247 12.7505 43.3609 12.7505 43.4553C12.7505 43.6174 12.8222 43.7295 12.8222 43.7295Z" fill="white"/>
</g>
<defs>
<clipPath id="clip0">
<rect width="60" height="60" fill="white"/>
</clipPath>
</defs>
</svg>
