<svg width="60" height="60" viewBox="0 0 60 60" fill="none" xmlns="http://www.w3.org/2000/svg">
<path d="M51.5625 31.875C51.2432 31.8748 50.9261 31.929 50.625 32.0353V26.25C50.625 25.5041 50.3287 24.7887 49.8012 24.2613C49.2738 23.7338 48.5584 23.4375 47.8125 23.4375C47.4924 23.4406 47.1752 23.499 46.875 23.61V20.625C46.875 19.8791 46.5787 19.1637 46.0512 18.6363C45.5238 18.1088 44.8084 17.8125 44.0625 17.8125H26.25V15C26.2499 14.8299 26.2036 14.663 26.1159 14.5172L23.4375 10.0528V9.375H24.375C24.6236 9.375 24.8621 9.27623 25.0379 9.10041C25.2137 8.9246 25.3125 8.68614 25.3125 8.4375V2.8125C25.3125 2.56386 25.2137 2.3254 25.0379 2.14959C24.8621 1.97377 24.6236 1.875 24.375 1.875H9.375C9.12636 1.875 8.8879 1.97377 8.71209 2.14959C8.53627 2.3254 8.4375 2.56386 8.4375 2.8125V8.4375C8.4375 8.68614 8.53627 8.9246 8.71209 9.10041C8.8879 9.27623 9.12636 9.375 9.375 9.375V9.92438L5.89969 13.3997C5.72386 13.5755 5.62505 13.8139 5.625 14.0625V25.3125C5.62491 25.7625 5.7328 26.2059 5.93961 26.6056C6.14641 27.0052 6.44609 27.3494 6.81348 27.6093C7.18087 27.8691 7.60525 28.037 8.05097 28.0989C8.49669 28.1607 8.95074 28.1147 9.375 27.9647V33.75C9.375 34.4959 9.67132 35.2113 10.1988 35.7387C10.7262 36.2662 11.4416 36.5625 12.1875 36.5625C12.5076 36.5594 12.8248 36.501 13.125 36.39V39.375C13.125 40.1209 13.4213 40.8363 13.9488 41.3637C14.4762 41.8912 15.1916 42.1875 15.9375 42.1875H33.75V45C33.7501 45.1701 33.7964 45.337 33.8841 45.4828L36.5625 49.9472V50.625H35.625C35.3764 50.625 35.1379 50.7238 34.9621 50.8996C34.7863 51.0754 34.6875 51.3139 34.6875 51.5625V57.1875C34.6875 57.4361 34.7863 57.6746 34.9621 57.8504C35.1379 58.0262 35.3764 58.125 35.625 58.125H50.625C50.8736 58.125 51.1121 58.0262 51.2879 57.8504C51.4637 57.6746 51.5625 57.4361 51.5625 57.1875V51.5625C51.5625 51.3139 51.4637 51.0754 51.2879 50.8996C51.1121 50.7238 50.8736 50.625 50.625 50.625V50.0756L54.1003 46.6003C54.2761 46.4245 54.3749 46.1861 54.375 45.9375V34.6875C54.375 33.9416 54.0787 33.2262 53.5512 32.6988C53.0238 32.1713 52.3084 31.875 51.5625 31.875ZM45 20.625V35.625C45 35.8736 44.9012 36.1121 44.7254 36.2879C44.5496 36.4637 44.3111 36.5625 44.0625 36.5625H43.125V24.375C43.125 23.6291 42.8287 22.9137 42.3012 22.3863C41.7738 21.8588 41.0584 21.5625 40.3125 21.5625H18.75V20.625C18.75 20.3764 18.8488 20.1379 19.0246 19.9621C19.2004 19.7863 19.4389 19.6875 19.6875 19.6875H44.0625C44.3111 19.6875 44.5496 19.7863 44.7254 19.9621C44.9012 20.1379 45 20.3764 45 20.625ZM10.3125 3.75H23.4375V7.5H10.3125V3.75ZM12.1875 34.6875C11.9389 34.6875 11.7004 34.5887 11.5246 34.4129C11.3488 34.2371 11.25 33.9986 11.25 33.75V19.6875C11.25 19.4389 11.1512 19.2004 10.9754 19.0246C10.7996 18.8488 10.5611 18.75 10.3125 18.75C10.0639 18.75 9.8254 18.8488 9.64959 19.0246C9.47377 19.2004 9.375 19.4389 9.375 19.6875V25.3125C9.375 25.5611 9.27623 25.7996 9.10041 25.9754C8.9246 26.1512 8.68614 26.25 8.4375 26.25C8.18886 26.25 7.9504 26.1512 7.77459 25.9754C7.59877 25.7996 7.5 25.5611 7.5 25.3125V14.4506L10.9753 10.9753C11.1511 10.7995 11.2499 10.5611 11.25 10.3125V9.375H21.5625V10.3125C21.5626 10.4826 21.6089 10.6495 21.6966 10.7953L24.375 15.2597V17.8125H19.6875C18.9416 17.8125 18.2262 18.1088 17.6988 18.6363C17.1713 19.1637 16.875 19.8791 16.875 20.625V21.5625H15.9375C15.1916 21.5625 14.4762 21.8588 13.9488 22.3863C13.4213 22.9137 13.125 23.6291 13.125 24.375V33.75C13.125 33.9986 13.0262 34.2371 12.8504 34.4129C12.6746 34.5887 12.4361 34.6875 12.1875 34.6875ZM15 39.375V24.375C15 24.1264 15.0988 23.8879 15.2746 23.7121C15.4504 23.5363 15.6889 23.4375 15.9375 23.4375H40.3125C40.5611 23.4375 40.7996 23.5363 40.9754 23.7121C41.1512 23.8879 41.25 24.1264 41.25 24.375V39.375C41.25 39.6236 41.1512 39.8621 40.9754 40.0379C40.7996 40.2137 40.5611 40.3125 40.3125 40.3125H15.9375C15.6889 40.3125 15.4504 40.2137 15.2746 40.0379C15.0988 39.8621 15 39.6236 15 39.375ZM49.6875 56.25H36.5625V52.5H49.6875V56.25ZM52.5 45.5494L49.0247 49.0247C48.8489 49.2005 48.7501 49.4389 48.75 49.6875V50.625H38.4375V49.6875C38.4374 49.5174 38.3911 49.3505 38.3034 49.2047L35.625 44.7403V42.1875H40.3125C41.0584 42.1875 41.7738 41.8912 42.3012 41.3637C42.8287 40.8363 43.125 40.1209 43.125 39.375V38.4375H44.0625C44.8084 38.4375 45.5238 38.1412 46.0512 37.6137C46.5787 37.0863 46.875 36.3709 46.875 35.625V26.25C46.875 26.0014 46.9738 25.7629 47.1496 25.5871C47.3254 25.4113 47.5639 25.3125 47.8125 25.3125C48.0611 25.3125 48.2996 25.4113 48.4754 25.5871C48.6512 25.7629 48.75 26.0014 48.75 26.25V40.3125C48.75 40.5611 48.8488 40.7996 49.0246 40.9754C49.2004 41.1512 49.4389 41.25 49.6875 41.25C49.9361 41.25 50.1746 41.1512 50.3504 40.9754C50.5262 40.7996 50.625 40.5611 50.625 40.3125V34.6875C50.625 34.4389 50.7238 34.2004 50.8996 34.0246C51.0754 33.8488 51.3139 33.75 51.5625 33.75C51.8111 33.75 52.0496 33.8488 52.2254 34.0246C52.4012 34.2004 52.5 34.4389 52.5 34.6875V45.5494Z" fill="#034899"/>
<path d="M31.9375 38.625H37.5625C37.8111 38.625 38.0496 38.5262 38.2254 38.3504C38.4012 38.1746 38.5 37.9361 38.5 37.6875V33.9375C38.5 33.6889 38.4012 33.4504 38.2254 33.2746C38.0496 33.0988 37.8111 33 37.5625 33H31.9375C31.6889 33 31.4504 33.0988 31.2746 33.2746C31.0988 33.4504 31 33.6889 31 33.9375V37.6875C31 37.9361 31.0988 38.1746 31.2746 38.3504C31.4504 38.5262 31.6889 38.625 31.9375 38.625ZM32.875 34.875H36.625V36.75H32.875V34.875Z" fill="#034899"/>
<path d="M37.5 26.25H39.375V30H37.5V26.25Z" fill="#034899"/>
<path d="M33.75 26.25H35.625V30H33.75V26.25Z" fill="#034899"/>
<path d="M30 26.25H31.875V30H30V26.25Z" fill="#034899"/>
<path d="M17.625 36H18.875V37.875H17L17.625 36Z" fill="#E6330F"/>
<path d="M21.3073 36H22.625V37.875H20.75L21.3073 36Z" fill="#E6330F"/>
<path d="M25.125 36H26.375V37.875H24.5L25.125 36Z" fill="#E6330F"/>
<path d="M16.875 32.8125H27V34.6875H16.875V32.8125Z" fill="#034899"/>
<path d="M24.1003 48.0872L22.7747 49.4128L24.9244 51.5625H12.1875C11.4416 51.5625 10.7262 51.2662 10.1988 50.7387C9.67132 50.2113 9.375 49.4959 9.375 48.75V41.25H7.5V48.75C7.50149 49.9927 7.99583 51.1842 8.87458 52.0629C9.75334 52.9417 10.9448 53.436 12.1875 53.4375H24.9244L22.7747 55.5872L24.1003 56.9128L27.8503 53.1628C28.0261 52.987 28.1248 52.7486 28.1248 52.5C28.1248 52.2514 28.0261 52.013 27.8503 51.8372L24.1003 48.0872Z" fill="#034899"/>
<path d="M34.0247 11.9125L35.3504 10.5869L33.2007 8.43723H45.9375C46.6835 8.43723 47.3988 8.73354 47.9263 9.26099C48.4537 9.78843 48.75 10.5038 48.75 11.2497V18.7497H50.625V11.2497C50.6236 10.007 50.1292 8.81556 49.2505 7.93681C48.3717 7.05805 47.1803 6.56372 45.9375 6.56223H33.2007L35.3504 4.41254L34.0247 3.08691L30.2747 6.83691C30.099 7.01272 30.0002 7.25113 30.0002 7.49973C30.0002 7.74832 30.099 7.98673 30.2747 8.16254L34.0247 11.9125Z" fill="#034899"/>
<path fill-rule="evenodd" clip-rule="evenodd" d="M18.8052 28.5992V26H17V29.1898L18.8052 28.5992Z" fill="#F44336"/>
<path fill-rule="evenodd" clip-rule="evenodd" d="M18.1786 27.3504C18.1786 27.3504 18.0998 27.3504 17.9478 27.3504C17.7958 27.3504 17.5725 27.5027 17.5725 27.8638C17.5725 28.1591 17.747 28.2682 17.9197 28.2682C18.0172 28.2682 18.1786 28.0989 18.1786 27.8977V27.3504ZM18.6984 28.3792H18.1786V28.2419C18.0904 28.3227 17.9046 28.4375 17.6963 28.4375C17.4899 28.4375 17.0996 28.2908 17.0996 27.8582C17.0996 27.4275 17.5988 27.2131 17.8878 27.2131C18.1767 27.2131 18.1786 27.2131 18.1786 27.2131C18.1786 27.0551 18.1786 27.0175 18.1786 26.9065C18.1786 26.7974 18.0998 26.6996 17.9591 26.6996C17.8164 26.6996 17.6438 26.7937 17.6438 27.0344H17.2291C17.2291 26.8745 17.3379 26.5642 17.9628 26.5642C18.5896 26.5642 18.6553 26.8463 18.6553 26.9723C18.6553 27.1002 18.6553 28.1441 18.6553 28.2042C18.6553 28.3077 18.6984 28.3792 18.6984 28.3792Z" fill="white"/>
<path fill-rule="evenodd" clip-rule="evenodd" d="M21.9896 27.7832H21.7475V27.7606L21.7513 27.7399L21.7551 27.7211L21.7607 27.7023L21.7663 27.6835L21.7757 27.6685L21.7851 27.6516L21.7963 27.6384L21.8095 27.6252L21.8207 27.6121L21.8357 27.6027L21.8508 27.5914L21.8658 27.5838L21.8808 27.5763L21.8995 27.5688L21.9164 27.5632L21.9333 27.5594L21.9521 27.5556L21.969 27.5538L21.9877 27.5519H21.9896L22.0046 27.5538L22.0234 27.5556L22.0403 27.5575L22.059 27.5613L22.0759 27.5669L22.0928 27.5726L22.1079 27.5801L22.1229 27.5876L22.1397 27.5989L22.1529 27.6083L22.166 27.6215L22.1773 27.6346L22.1904 27.6497L22.1998 27.6647L22.2073 27.6816L22.2148 27.6986L22.2204 27.7193L22.2261 27.7381L22.2279 27.7606L22.2298 27.7832H21.9896ZM19.5876 26.651H19.0641V28.4076H19.5876V26.651ZM26.9962 27.5613L26.9925 27.5443L26.9887 27.5255L26.9831 27.5105L26.9793 27.4936L26.9737 27.4785L26.9681 27.4635L26.9606 27.4484L26.955 27.4353L26.9475 27.4221L26.94 27.4089L26.9306 27.3958L26.9212 27.3845L26.9118 27.3751L26.9005 27.3638L26.8911 27.3525L26.8799 27.3431L26.8686 27.3337L26.8574 27.3243L26.8442 27.3168L26.833 27.3074L26.8198 27.2998L26.8067 27.2923L26.7936 27.2829L26.7804 27.2773L26.7654 27.2698L26.7504 27.2641L26.7373 27.2566L26.7222 27.2509L26.7072 27.2453L26.6922 27.2397L26.6772 27.234L26.6603 27.2284L26.6434 27.2246L26.6284 27.2209L26.6115 27.2152L26.5947 27.2115L26.5778 27.2077L26.5609 27.2039L26.544 27.2002L26.5252 27.1983L26.5065 27.1945L26.4896 27.1926L26.4708 27.1889L26.4539 27.187L26.4352 27.1832L26.4164 27.1814L26.3957 27.1795H26.377L26.3582 27.1776H26.3395L26.3226 27.1757H26.3038H26.2831H26.2625H26.2419H26.2212H26.2006H26.1799L26.1612 27.1776L26.1405 27.1795L26.1199 27.1814H26.0992L26.0805 27.1832L26.0617 27.187L26.0448 27.1889L26.0261 27.1926L26.0092 27.1945L25.9904 27.1983L25.9735 27.2002L25.9547 27.2039L25.9379 27.2077L25.921 27.2115L25.906 27.2171L25.8891 27.2209L25.874 27.2246L25.8572 27.2303L25.8422 27.2359L25.8253 27.2415L25.8103 27.2472L25.7952 27.2528L25.7821 27.2585L25.7671 27.266L25.7521 27.2716L25.739 27.2792L25.7239 27.2867L25.7127 27.2942L25.6995 27.3017L25.6864 27.3093L25.6733 27.3168L25.6601 27.3262L25.6489 27.3356L25.6376 27.3431L25.6245 27.3525L25.6151 27.3638L25.6038 27.3732L25.5926 27.3826L25.5832 27.392L25.5719 27.4033L25.5607 27.4146L25.5513 27.424L25.5419 27.4371L25.5325 27.4484L25.525 27.4597L25.5156 27.4729L25.5081 27.486L25.4988 27.4973L25.4913 27.5124L25.4838 27.5255L25.4781 27.5387L25.4725 27.5556L25.465 27.5688L25.4612 27.5857L25.4556 27.6008L25.45 27.6177L25.4481 27.6346L25.4443 27.6516L25.4424 27.6647L25.4406 27.6741L25.4387 27.7042H26.0186V27.6779L26.0204 27.6704L26.0242 27.6591L26.0298 27.644L26.0373 27.629L26.0448 27.6177L26.0561 27.6064L26.0655 27.597L26.0786 27.5876L26.0936 27.582L26.1067 27.5763L26.1236 27.5707L26.1405 27.565L26.1574 27.5613L26.1762 27.5594H26.1949L26.2156 27.5575L26.2344 27.5594H26.255L26.2719 27.5632L26.2888 27.5669L26.3057 27.5707L26.3207 27.5763L26.3357 27.582L26.3488 27.5895L26.362 27.5989L26.3713 27.6083L26.3807 27.6215L26.3863 27.6365L26.3901 27.6534V27.6704V27.6892L26.3845 27.7042L26.377 27.7174L26.3657 27.7268L26.3545 27.7343L26.3395 27.7418L26.3244 27.7475L26.3094 27.7531L26.2925 27.7569L26.2756 27.7606L26.2588 27.7644L26.24 27.7682L26.2231 27.77L26.1499 27.7813L26.0767 27.7926L26.0036 27.802L25.9322 27.8133L25.9135 27.8152L25.8966 27.8189L25.8778 27.8227L25.8609 27.8246L25.844 27.8283L25.8253 27.8321L25.8084 27.8359L25.7915 27.8396L25.7746 27.8434L25.7596 27.849L25.7427 27.8528L25.7258 27.8566L25.7108 27.8622L25.6939 27.8678L25.6789 27.8716L25.6639 27.8772L25.647 27.8829L25.632 27.8885L25.617 27.8942L25.6038 27.9017L25.5888 27.9073L25.5738 27.913L25.5607 27.9205L25.5476 27.928L25.5344 27.9356L25.5213 27.945L25.5081 27.9525L25.4969 27.96L25.4856 27.9694L25.4744 27.9807L25.4631 27.9901L25.4537 28.0014L25.4443 28.0127L25.4349 28.0239L25.4256 28.0352L25.4181 28.0484L25.4106 28.0634L25.4049 28.0766L25.3974 28.0917L25.3937 28.1067L25.3881 28.1236L25.3843 28.1406L25.3805 28.1575L25.3768 28.1763L25.3749 28.1932L25.373 28.212V28.229L25.3749 28.2459L25.3768 28.2628L25.3805 28.2779L25.3862 28.2948L25.3918 28.3079L25.3993 28.323L25.4068 28.3362L25.4162 28.3474L25.4256 28.3587L25.4368 28.3681L25.4481 28.3775L25.4593 28.3869L25.4725 28.3945L25.4875 28.4001L25.5044 28.4039L25.5213 28.4057L25.54 28.4076H26.1067L26.0786 28.3888L26.073 28.3832L26.0655 28.3738L26.058 28.3644L26.0486 28.3512L26.0411 28.3399L26.0336 28.3249L26.0279 28.3079L26.0242 28.291V28.2741L26.0279 28.2572L26.0317 28.2402L26.0373 28.2271L26.0448 28.2139L26.0561 28.2026L26.0655 28.1932L26.0767 28.1819L26.0899 28.1744L26.103 28.1669L26.1161 28.1594L26.1311 28.1537L26.1462 28.1481L26.2099 28.1274L26.2719 28.1067L26.2869 28.1011L26.3038 28.0973L26.3188 28.0917L26.3357 28.086L26.3507 28.0804L26.362 28.0766L26.3695 28.0747L26.3788 28.0728L26.3957 28.0634V28.4076H27V27.6196V27.6008L26.9981 27.5801L26.9962 27.5613ZM20.7042 26.6472H20.0962V27.2058H19.8504V27.5838H20.0962V28.0935V28.1105V28.1293V28.1462L20.0981 28.1631L20.0999 28.1782L20.1018 28.1932L20.1056 28.2083L20.1093 28.2233L20.1131 28.2365L20.1168 28.2496L20.1225 28.2628L20.1281 28.276L20.1356 28.2873L20.1412 28.2985L20.1487 28.3079L20.1562 28.3192L20.1656 28.3268L20.1731 28.3362L20.1825 28.3456L20.1919 28.355L20.2013 28.3625L20.2125 28.3681L20.2238 28.3757L20.2388 28.3794L20.2519 28.3832L20.2651 28.3888L20.2782 28.3926L20.2951 28.3945L20.3101 28.3963L20.327 28.3982L20.342 28.4001H20.3589L20.3777 28.402H20.7042V27.5838H21.0532V27.2058H20.7042V26.6472ZM24.0332 27.1964L24.0182 27.1926L24.005 27.1889L23.9919 27.1851L23.9769 27.1832L23.9637 27.1814L23.9487 27.1795L23.9337 27.1776H23.9187H23.9056H23.8905L23.8774 27.1795L23.8624 27.1814L23.8493 27.1832L23.8343 27.187L23.823 27.1889L23.8099 27.1926L23.7967 27.1964L23.7855 27.2002L23.7742 27.2039L23.7611 27.2077L23.7498 27.2133L23.7386 27.219L23.7273 27.2246L23.716 27.2303L23.7048 27.2378L23.6935 27.2434L23.6841 27.2509L23.6729 27.2585L23.6635 27.266L23.6522 27.2735L23.6447 27.2829L23.6353 27.2923L23.6259 27.2998L23.6166 27.3093L23.6091 27.3187L23.5997 27.3281L23.5922 27.3393L23.5847 27.3487V27.2058H23.0255V28.4076H23.641V27.8114V27.7945L23.6428 27.7776L23.6447 27.7625L23.6485 27.7494L23.6522 27.7343L23.6579 27.7211L23.6635 27.708L23.6691 27.6967L23.6748 27.6854L23.6823 27.6741L23.6916 27.6647L23.6991 27.6553L23.7085 27.6478L23.7179 27.6384L23.7273 27.6309L23.7386 27.6252L23.7498 27.6177L23.7611 27.6121L23.7742 27.6064L23.7873 27.6008L23.8005 27.597L23.8155 27.5932L23.8286 27.5895L23.8455 27.5876L23.8605 27.5857L23.8774 27.5838H24.0594V27.2058L24.0463 27.2002L24.0332 27.1964ZM25.2604 27.1964L25.2473 27.1926L25.2342 27.1889L25.2192 27.1851L25.206 27.1832L25.191 27.1814L25.1778 27.1795L25.1628 27.1776H25.1478H25.1347H25.1197L25.1047 27.1795L25.0915 27.1814L25.0765 27.1832L25.0634 27.187L25.0503 27.1889L25.0371 27.1926L25.0259 27.1964L25.0127 27.2002L25.0015 27.2039L24.9902 27.2077L24.9771 27.2133L24.9658 27.219L24.9546 27.2246L24.9433 27.2303L24.9339 27.2378L24.9226 27.2434L24.9114 27.2509L24.9001 27.2585L24.8908 27.266L24.8814 27.2735L24.872 27.2829L24.8626 27.2923L24.8532 27.2998L24.8438 27.3093L24.8363 27.3187L24.8288 27.3281L24.8194 27.3393L24.8119 27.3487L24.8138 27.2058H24.2546V28.4076H24.8683V27.8114V27.7945L24.8701 27.7776L24.8739 27.7625L24.8776 27.7494L24.8814 27.7343L24.8851 27.7211L24.8908 27.708L24.8964 27.6967L24.9039 27.6854L24.9114 27.6741L24.9189 27.6647L24.9264 27.6553L24.9358 27.6478L24.9452 27.6384L24.9565 27.6309L24.9677 27.6252L24.9771 27.6177L24.9902 27.6121L25.0015 27.6064L25.0146 27.6008L25.0277 27.597L25.0428 27.5932L25.0578 27.5895L25.0728 27.5876L25.0896 27.5857L25.1047 27.5838H25.2886V27.2058L25.2736 27.2002L25.2604 27.1964ZM22.8322 27.8979V27.881L22.8303 27.866V27.8509L22.8266 27.834L22.8247 27.8189L22.8228 27.802L22.8191 27.7851L22.8153 27.77L22.8134 27.7512L22.8097 27.7343L22.8059 27.7193L22.8022 27.7023L22.7965 27.6854L22.7909 27.6685L22.7853 27.6534L22.7796 27.6365L22.774 27.6196L22.7684 27.6045L22.7609 27.5876L22.7552 27.5744L22.7477 27.5594L22.7402 27.5462L22.7327 27.5312L22.7252 27.518L22.7159 27.5049L22.7065 27.4917L22.699 27.4785L22.6896 27.4672L22.6783 27.4541L22.6689 27.4428L22.6595 27.4296L22.6483 27.4183L22.637 27.4071L22.6258 27.3958L22.6145 27.3845L22.6032 27.3751L22.592 27.3638L22.5788 27.3544L22.5657 27.345L22.5545 27.3337L22.5413 27.3243L22.5282 27.3168L22.5132 27.3074L22.5019 27.2998L22.4869 27.2923L22.4738 27.2829L22.4588 27.2754L22.4456 27.2679L22.4306 27.2622L22.4156 27.2547L22.4025 27.2491L22.3875 27.2434L22.3725 27.2378L22.3574 27.2321L22.3424 27.2265L22.3274 27.2227L22.3105 27.219L22.2955 27.2152L22.2805 27.2115L22.2655 27.2077L22.2486 27.2039L22.2336 27.202L22.2167 27.1983L22.1998 27.1964L22.1829 27.1926L22.166 27.1889L22.1491 27.187L22.1322 27.1851L22.1154 27.1832L22.0985 27.1814L22.0816 27.1795L22.0647 27.1776H22.0459L22.0309 27.1757H22.0121H21.9952H21.9896H21.9783H21.9615H21.9446L21.9277 27.1776H21.9108L21.8939 27.1795L21.877 27.1814L21.8583 27.1832L21.8414 27.1851L21.8245 27.187L21.8095 27.1889L21.7926 27.1926L21.7738 27.1964L21.7588 27.2002L21.7419 27.2039L21.725 27.2077L21.7081 27.2115L21.6913 27.2171L21.6744 27.2209L21.6575 27.2265L21.6424 27.2321L21.6256 27.2378L21.6106 27.2434L21.5937 27.2491L21.5787 27.2566L21.5617 27.2641L21.5467 27.2716L21.5299 27.2773L21.5149 27.2867L21.4999 27.2942L21.4848 27.3017L21.4698 27.3093L21.4548 27.3187L21.4398 27.3281L21.4248 27.3356L21.4117 27.345L21.3966 27.3544L21.3835 27.3657L21.3704 27.3751L21.3591 27.3864L21.3479 27.3958L21.3366 27.4071L21.3253 27.4183L21.3159 27.4296L21.3047 27.4428L21.2953 27.4541L21.284 27.4672L21.2765 27.4785L21.2653 27.4917L21.2578 27.5049L21.2484 27.518L21.2409 27.5312L21.2334 27.5462L21.2259 27.5594L21.2183 27.5744L21.2108 27.5876L21.2052 27.6027L21.1977 27.6158L21.1921 27.6309L21.1865 27.6459L21.1808 27.6591L21.1771 27.6741L21.1715 27.6892L21.1677 27.7042L21.164 27.7193L21.1602 27.7343L21.1564 27.7494L21.1546 27.7663L21.1527 27.7813L21.1489 27.7983L21.1471 27.8133L21.1452 27.8302V27.8453L21.1433 27.8622L21.1414 27.8772V27.8942V27.9092V27.9261V27.9431L21.1433 27.9581L21.1452 27.975V27.9901L21.1489 28.007L21.1508 28.0221L21.1527 28.039L21.1564 28.0559L21.1583 28.071L21.164 28.086L21.1677 28.1011L21.1715 28.118L21.1771 28.133L21.1808 28.1481L21.1865 28.1631L21.1921 28.1782L21.1977 28.1932L21.2052 28.2083L21.2108 28.2233L21.2183 28.2384L21.2259 28.2515L21.2334 28.2666L21.2409 28.2797L21.2484 28.2948L21.2578 28.3079L21.2653 28.323L21.2765 28.3343L21.284 28.3474L21.2953 28.3606L21.3047 28.3738L21.3141 28.3869L21.3253 28.4001H21.7626V28.0917H21.9896H22.8153L22.8191 28.0747L22.8228 28.0597L22.8247 28.0446L22.8266 28.0277L22.8284 28.0108L22.8303 27.9957L22.8322 27.9788V27.9638L22.8341 27.9468V27.9299V27.9149L22.8322 27.8979Z" fill="#1B1717"/>
<path fill-rule="evenodd" clip-rule="evenodd" d="M26.8969 29.2426V29.1636H26.9757V29.2426H26.8969ZM26.9138 29.1354L26.8931 28.9247V28.8288H26.9794V28.9247L26.9588 29.1354H26.9138ZM26.728 29.0996C26.7186 29.1015 26.7017 29.1053 26.6811 29.1109C26.6586 29.1147 26.6454 29.1203 26.6379 29.1241C26.6285 29.1316 26.6229 29.141 26.6229 29.1523C26.6229 29.1636 26.6267 29.173 26.6342 29.1805C26.6435 29.188 26.6529 29.1937 26.6661 29.1937C26.6811 29.1937 26.6942 29.188 26.7074 29.1786C26.7167 29.1711 26.7224 29.1636 26.7261 29.1523C26.728 29.1467 26.728 29.1335 26.728 29.1147V29.0996ZM26.6229 29.0357L26.5516 29.0225C26.5591 28.9924 26.5741 28.9717 26.5929 28.9567C26.6135 28.9417 26.6417 28.936 26.6811 28.936C26.7167 28.936 26.7411 28.9398 26.7599 28.9492C26.7768 28.9567 26.788 28.968 26.7955 28.9812C26.803 28.9924 26.8068 29.0169 26.8068 29.0507L26.8049 29.1429C26.8049 29.1692 26.8068 29.188 26.8087 29.2012C26.8106 29.2144 26.8162 29.2275 26.8237 29.2426H26.7449C26.743 29.2369 26.7393 29.2294 26.7374 29.2181C26.7355 29.2144 26.7355 29.2106 26.7336 29.2087C26.7205 29.2238 26.7055 29.2332 26.6924 29.2388C26.6755 29.2463 26.6604 29.2501 26.6417 29.2501C26.6117 29.2501 26.5873 29.2407 26.5704 29.2238C26.5535 29.2068 26.5441 29.1862 26.5441 29.1598C26.5441 29.1448 26.5478 29.1279 26.5553 29.1147C26.5629 29.1034 26.5741 29.0921 26.5892 29.0846C26.6042 29.0771 26.6248 29.0714 26.6529 29.0677C26.6886 29.0601 26.7149 29.0526 26.728 29.047V29.0395C26.728 29.0244 26.7242 29.0131 26.7167 29.0056C26.7092 29 26.6961 28.9962 26.6755 28.9962C26.6604 28.9962 26.6492 29 26.6417 29.0056C26.6342 29.0112 26.6285 29.0207 26.6229 29.0357ZM26.2476 28.9417H26.5178V29.0056H26.4221V29.2426H26.3433V29.0056H26.2476V28.9417ZM25.9323 28.9417H26.0112V29.0526H26.1256V28.9417H26.2044V29.2426H26.1256V29.1166H26.0112V29.2426H25.9323V28.9417ZM25.6471 29.0921C25.6471 29.1222 25.6546 29.1448 25.6696 29.1598C25.6828 29.1768 25.6996 29.1843 25.7203 29.1843C25.7409 29.1843 25.7578 29.1768 25.7728 29.1598C25.786 29.1448 25.7935 29.1222 25.7935 29.0921C25.7935 29.062 25.786 29.0395 25.7728 29.0244C25.7578 29.0094 25.7409 29 25.7203 29C25.6996 29 25.6828 29.0094 25.6696 29.0244C25.6546 29.0395 25.6471 29.0639 25.6471 29.0921ZM25.5664 29.0884C25.5664 29.062 25.5739 29.0376 25.5852 29.0112C25.6002 28.9868 25.6171 28.968 25.6415 28.9567C25.664 28.9417 25.6921 28.936 25.7203 28.936C25.7653 28.936 25.8029 28.9511 25.831 28.9812C25.8591 29.0094 25.8742 29.047 25.8742 29.0921C25.8742 29.1373 25.8591 29.1749 25.831 29.205C25.801 29.2351 25.7653 29.2501 25.7203 29.2501C25.694 29.2501 25.6678 29.2426 25.6434 29.2313C25.6171 29.2181 25.6002 29.1993 25.5852 29.1749C25.5739 29.1523 25.5664 29.1222 25.5664 29.0884ZM25.1705 28.9417H25.268L25.3412 29.1504L25.4163 28.9417H25.5139V29.2426H25.4463V29.0451L25.375 29.2426H25.3075L25.238 29.0451V29.2426H25.1705V28.9417ZM25.0335 29.0677C25.0316 29.0432 25.026 29.0263 25.0147 29.015C25.0034 29.0037 24.9903 28.9962 24.9753 28.9962C24.9566 28.9962 24.9434 29.0037 24.9321 29.015C24.9209 29.0282 24.9152 29.0451 24.9152 29.0677H25.0335ZM25.0279 29.1467L25.1067 29.1598C25.0973 29.188 25.0804 29.2106 25.0598 29.2275C25.0373 29.2407 25.011 29.2501 24.9772 29.2501C24.9246 29.2501 24.8871 29.2332 24.8627 29.1974C24.8421 29.1711 24.8327 29.1354 24.8327 29.0959C24.8327 29.0451 24.8458 29.0056 24.8721 28.9774C24.8965 28.9492 24.9303 28.936 24.9697 28.936C25.0128 28.936 25.0485 28.9511 25.0748 28.9812C25.0992 29.0094 25.1123 29.0545 25.1104 29.1147H24.9134C24.9134 29.1391 24.9209 29.1561 24.9321 29.1711C24.9453 29.1824 24.9603 29.1899 24.9772 29.1899C24.9903 29.1899 24.9997 29.1862 25.0091 29.1786C25.0185 29.173 25.0241 29.1617 25.0279 29.1467ZM24.5793 29.0884C24.5793 29.1203 24.5869 29.1448 24.6 29.1617C24.6132 29.1786 24.63 29.1862 24.6488 29.1862C24.6675 29.1862 24.6826 29.1786 24.6938 29.1636C24.707 29.1485 24.7126 29.1241 24.7126 29.0921C24.7126 29.0601 24.7051 29.0357 24.6938 29.0207C24.6807 29.0056 24.6657 28.9981 24.6469 28.9981C24.6282 28.9981 24.6113 29.0056 24.6 29.0207C24.5869 29.0357 24.5793 29.0583 24.5793 29.0884ZM24.5024 28.9417H24.5756V28.9868C24.585 28.9717 24.5981 28.9605 24.615 28.9492C24.6319 28.9398 24.6488 28.936 24.6694 28.936C24.7032 28.936 24.7332 28.9492 24.7576 28.9774C24.782 29.0037 24.7933 29.0413 24.7933 29.0902C24.7933 29.141 24.782 29.1805 24.7576 29.2068C24.7332 29.2351 24.7032 29.2501 24.6694 29.2501C24.6525 29.2501 24.6375 29.2463 24.6225 29.2388C24.6094 29.2332 24.5963 29.2219 24.5812 29.205V29.3554H24.5024V28.9417ZM23.9901 28.9417H24.0652V29.1297L24.1872 28.9417H24.2641V29.2426H24.189V29.0507L24.0652 29.2426H23.9901V28.9417ZM23.4778 28.9417H23.5529V29.1297L23.6749 28.9417H23.7518V29.2426H23.6767V29.0507L23.5529 29.2426H23.4778V28.9417ZM23.1888 28.9417H23.2676V29.0639C23.2808 29.0639 23.2902 29.0601 23.2958 29.0526C23.3014 29.0451 23.3071 29.0319 23.3146 29.0094C23.324 28.9812 23.3352 28.9623 23.3483 28.9529C23.3596 28.9454 23.3765 28.9398 23.3953 28.9398C23.4009 28.9398 23.4122 28.9417 23.4272 28.9417V28.9943C23.4065 28.9943 23.3915 28.9962 23.3878 29C23.3821 29.0037 23.3746 29.0169 23.3671 29.0376C23.3596 29.0639 23.3465 29.0808 23.3277 29.0884C23.354 29.0959 23.3746 29.1166 23.3915 29.1523C23.3915 29.1561 23.3934 29.1561 23.3953 29.1598L23.4384 29.2426H23.354L23.3146 29.1542C23.3071 29.1373 23.2996 29.126 23.2939 29.1203C23.2883 29.1166 23.2789 29.1128 23.2676 29.1128V29.2426H23.1888V28.9417ZM23.0256 28.8213H23.0631C23.0613 28.8476 23.0519 28.8683 23.0368 28.8815C23.0199 28.8965 23.0012 28.904 22.9768 28.904C22.9505 28.904 22.9299 28.8965 22.9149 28.8815C22.8999 28.8683 22.8905 28.8476 22.8886 28.8213H22.9261C22.928 28.8345 22.9336 28.8457 22.9411 28.8514C22.9486 28.8589 22.9599 28.8627 22.9768 28.8627C22.9899 28.8627 23.0031 28.8589 23.0106 28.8514C23.0181 28.8457 23.0237 28.8345 23.0256 28.8213ZM22.8379 28.9417H22.913V29.1297L23.0331 28.9417H23.1119V29.2426H23.035V29.0507L22.913 29.2426H22.8379V28.9417ZM22.5508 29.0921C22.5508 29.1222 22.5583 29.1448 22.5715 29.1598C22.5865 29.1768 22.6034 29.1843 22.624 29.1843C22.6446 29.1843 22.6615 29.1768 22.6747 29.1598C22.6897 29.1448 22.6953 29.1222 22.6953 29.0921C22.6953 29.062 22.6897 29.0395 22.6747 29.0244C22.6615 29.0094 22.6446 29 22.624 29C22.6034 29 22.5865 29.0094 22.5715 29.0244C22.5583 29.0395 22.5508 29.0639 22.5508 29.0921ZM22.4701 29.0884C22.4701 29.062 22.4758 29.0376 22.4889 29.0112C22.502 28.9868 22.5208 28.968 22.5433 28.9567C22.5677 28.9417 22.594 28.936 22.624 28.936C22.669 28.936 22.7047 28.9511 22.7347 28.9812C22.7628 29.0094 22.7779 29.047 22.7779 29.0921C22.7779 29.1373 22.7628 29.1749 22.7347 29.205C22.7047 29.2351 22.6671 29.2501 22.624 29.2501C22.5958 29.2501 22.5715 29.2426 22.5452 29.2313C22.5208 29.2181 22.502 29.1993 22.4889 29.1749C22.4758 29.1523 22.4701 29.1222 22.4701 29.0884ZM22.213 29.0884C22.213 29.1203 22.2187 29.1448 22.2337 29.1617C22.2468 29.1786 22.2618 29.1862 22.2806 29.1862C22.2994 29.1862 22.3144 29.1786 22.3256 29.1636C22.3388 29.1485 22.3444 29.1241 22.3444 29.0921C22.3444 29.0601 22.3388 29.0357 22.3256 29.0207C22.3144 29.0056 22.2975 28.9981 22.2787 28.9981C22.2599 28.9981 22.2449 29.0056 22.2318 29.0207C22.2187 29.0357 22.213 29.0583 22.213 29.0884ZM22.1361 28.9417H22.2093V28.9868C22.2187 28.9717 22.2318 28.9605 22.2468 28.9492C22.2637 28.9398 22.2825 28.936 22.3012 28.936C22.3369 28.936 22.3651 28.9492 22.3894 28.9774C22.4138 29.0037 22.4251 29.0413 22.4251 29.0902C22.4251 29.141 22.4138 29.1805 22.3894 29.2068C22.3651 29.2351 22.335 29.2501 22.3012 29.2501C22.2844 29.2501 22.2693 29.2463 22.2562 29.2388C22.243 29.2332 22.228 29.2219 22.213 29.205V29.3554H22.1361V28.9417ZM21.8208 28.9417H22.0911V29.0056H21.9953V29.2426H21.9165V29.0056H21.8208V28.9417ZM21.7964 29.0319L21.7195 29.0451C21.7157 29.0301 21.7101 29.0188 21.7007 29.0094C21.6914 29.0018 21.6801 28.9981 21.6651 28.9981C21.6463 28.9981 21.6294 29.0056 21.6182 29.0188C21.6069 29.0319 21.6013 29.0545 21.6013 29.0865C21.6013 29.1222 21.6069 29.1485 21.6182 29.1617C21.6294 29.1768 21.6463 29.1843 21.667 29.1843C21.682 29.1843 21.6932 29.1805 21.7026 29.1711C21.712 29.1636 21.7195 29.1485 21.7232 29.1279L21.8002 29.141C21.7927 29.1768 21.7777 29.2031 21.7533 29.2219C21.7326 29.2407 21.7007 29.2501 21.6632 29.2501C21.6182 29.2501 21.5844 29.2351 21.5581 29.2068C21.5319 29.1805 21.5187 29.141 21.5187 29.0921C21.5187 29.0432 21.5319 29.0056 21.5581 28.9774C21.5844 28.9492 21.62 28.936 21.6651 28.936C21.7007 28.936 21.7289 28.9435 21.7495 28.9605C21.7721 28.9755 21.7871 29 21.7964 29.0319ZM21.2185 28.9924H21.1622C21.1415 28.9924 21.1265 28.9962 21.119 29.0018C21.1096 29.0075 21.1059 29.0169 21.1059 29.0319C21.1059 29.0451 21.1096 29.0564 21.1209 29.062C21.1303 29.0677 21.1453 29.0714 21.1678 29.0714H21.2185V28.9924ZM21.2973 28.9417V29.2426H21.2185V29.1166H21.2128C21.1941 29.1166 21.1828 29.1203 21.1734 29.1241C21.1659 29.1279 21.1566 29.1391 21.1472 29.1523L21.1434 29.1579L21.0909 29.2426H20.9989L21.0552 29.1542C21.0721 29.1297 21.0852 29.1166 21.0984 29.1128C21.0777 29.1109 21.059 29.1034 21.0458 29.0865C21.0308 29.0714 21.0233 29.0526 21.0233 29.0282C21.0233 29.0075 21.0289 28.9924 21.0383 28.9774C21.0477 28.9642 21.059 28.9548 21.074 28.9492C21.089 28.9454 21.1134 28.9417 21.1415 28.9417H21.2973ZM20.6987 28.9417H20.9614V29.2426H20.8826V29.0056H20.7756V29.141C20.7756 29.1749 20.7719 29.1993 20.7643 29.2125C20.7568 29.2275 20.7475 29.2369 20.7381 29.2407C20.7287 29.2445 20.7137 29.2463 20.6912 29.2463C20.6799 29.2463 20.663 29.2445 20.6424 29.2426V29.1843C20.6442 29.1843 20.648 29.1843 20.6555 29.1843C20.663 29.1843 20.6705 29.1843 20.6743 29.1843C20.6855 29.1843 20.6912 29.1805 20.6949 29.1749C20.6968 29.1674 20.6987 29.1485 20.6987 29.1166V28.9417ZM20.5129 29.1768V29.0075H20.4172C20.4134 29.0902 20.4003 29.1467 20.3778 29.1768H20.5129ZM20.5579 29.2426H20.3327V29.3197H20.2689V29.1768H20.3008C20.314 29.1617 20.3252 29.1391 20.3346 29.1072C20.344 29.0752 20.3478 29.0207 20.3496 28.9417H20.5898V29.1768H20.6217V29.3197H20.5579V29.2426ZM19.9762 28.904V28.8345H20.0438V28.904H19.9762ZM19.8542 28.904V28.8345H19.9237V28.904H19.8542ZM20.01 29.0677C20.01 29.0432 20.0043 29.0263 19.9931 29.015C19.9818 29.0037 19.9687 28.9962 19.9518 28.9962C19.9349 28.9962 19.9199 29.0037 19.9086 29.015C19.8974 29.0282 19.8918 29.0451 19.8918 29.0677H20.01ZM20.0062 29.1467L20.085 29.1598C20.0738 29.188 20.0588 29.2106 20.0363 29.2275C20.0137 29.2407 19.9875 29.2501 19.9537 29.2501C19.903 29.2501 19.8655 29.2332 19.8392 29.1974C19.8204 29.1711 19.8111 29.1354 19.8111 29.0959C19.8111 29.0451 19.8223 29.0056 19.8486 28.9774C19.8749 28.9492 19.9068 28.936 19.9462 28.936C19.9912 28.936 20.025 28.9511 20.0513 28.9812C20.0775 29.0094 20.0888 29.0545 20.0888 29.1147H19.8918C19.8918 29.1391 19.8974 29.1561 19.9105 29.1711C19.9218 29.1824 19.9368 29.1899 19.9556 29.1899C19.9687 29.1899 19.9781 29.1862 19.9856 29.1786C19.995 29.173 20.0006 29.1617 20.0062 29.1467ZM19.7735 29.0319L19.6947 29.0451C19.6928 29.0301 19.6872 29.0188 19.6778 29.0094C19.6684 29.0018 19.6572 28.9981 19.6422 28.9981C19.6215 28.9981 19.6065 29.0056 19.5953 29.0188C19.584 29.0319 19.5765 29.0545 19.5765 29.0865C19.5765 29.1222 19.584 29.1485 19.5953 29.1617C19.6065 29.1768 19.6234 29.1843 19.6422 29.1843C19.6572 29.1843 19.6703 29.1805 19.6797 29.1711C19.6891 29.1636 19.6966 29.1485 19.7003 29.1279L19.7773 29.141C19.7698 29.1768 19.7548 29.2031 19.7304 29.2219C19.7079 29.2407 19.6778 29.2501 19.6384 29.2501C19.5953 29.2501 19.5615 29.2351 19.5352 29.2068C19.5089 29.1805 19.4958 29.141 19.4958 29.0921C19.4958 29.0432 19.5089 29.0056 19.5352 28.9774C19.5615 28.9492 19.5971 28.936 19.6403 28.936C19.676 28.936 19.706 28.9435 19.7266 28.9605C19.7491 28.9755 19.7642 29 19.7735 29.0319ZM19.1824 29.062V29.1711H19.2594C19.2894 29.1711 19.3082 29.1711 19.3175 29.1692C19.3288 29.1674 19.3382 29.1617 19.3476 29.1523C19.3551 29.1448 19.3588 29.1316 19.3588 29.1166C19.3588 29.1053 19.3551 29.094 19.3494 29.0865C19.3438 29.0771 19.3344 29.0714 19.3232 29.0677C19.3119 29.0639 19.2875 29.062 19.25 29.062H19.1824ZM19.1824 28.8965V28.9924H19.2368C19.2687 28.9924 19.2894 28.9924 19.2969 28.9906C19.3119 28.9887 19.3232 28.9849 19.3307 28.9774C19.3382 28.968 19.3419 28.9586 19.3419 28.9435C19.3419 28.9323 19.3401 28.921 19.3325 28.9134C19.325 28.9059 19.3157 28.9003 19.3006 28.8984C19.2931 28.8984 19.2687 28.8965 19.2312 28.8965H19.1824ZM19.0999 28.8288H19.265C19.2969 28.8288 19.3213 28.8307 19.3363 28.8326C19.3532 28.8345 19.3682 28.842 19.3795 28.8495C19.3926 28.8589 19.402 28.8702 19.4114 28.8834C19.4207 28.8984 19.4245 28.9134 19.4245 28.9323C19.4245 28.9511 19.4189 28.9699 19.4076 28.9849C19.3982 29.0018 19.3851 29.0131 19.3663 29.0225C19.3907 29.0301 19.4095 29.0413 19.4245 29.0601C19.4376 29.0771 19.4433 29.0978 19.4433 29.1222C19.4433 29.141 19.4395 29.1579 19.432 29.1768C19.4226 29.1937 19.4095 29.2087 19.3963 29.22C19.3795 29.2294 19.3626 29.2369 19.3401 29.2388C19.325 29.2407 19.2931 29.2407 19.2387 29.2426H19.0999V28.8288Z" fill="#1B1717"/>
</svg>
