<svg width="61" height="60" viewBox="0 0 61 60" fill="none" xmlns="http://www.w3.org/2000/svg">
<g clip-path="url(#clip0)">
<path d="M15.5542 30C7.24007 30 0.5 36.7158 0.5 45C0.5 53.2842 7.24007 60 15.5542 60C23.8682 60 30.6083 53.2842 30.6083 45C30.599 36.7197 23.8643 30.0093 15.5542 30ZM11.5397 57.3638V54H9.53249V56.521C8.82487 56.1499 8.15302 55.7144 7.52527 55.2212V54.02C7.52772 52.6807 8.41715 51.5039 9.70793 51.1309L11.8911 50.5112L14.9519 52.7998C15.3086 53.0669 15.7997 53.0669 16.1564 52.7998L19.2172 50.5112L21.4014 51.1318C22.6916 51.5044 23.5806 52.6812 23.583 54.02V55.2261C22.9553 55.7197 22.2834 56.1548 21.5758 56.5259V54H19.5686V57.3638C16.9601 58.2119 14.1482 58.2119 11.5397 57.3638ZM18.9061 39.4458L18.4596 38.5542C18.3312 38.2969 18.098 38.1074 17.8196 38.0337C17.5408 37.9595 17.2443 38.0088 17.0042 38.168L15.511 39.1602C14.6868 39.7085 13.718 40.001 12.7271 40H11.5397C11.5324 37.791 13.3235 35.9941 15.5404 35.9863C17.7579 35.979 19.5612 37.7637 19.5686 39.9731C19.2804 39.9033 19.0379 39.7104 18.9061 39.4458ZM12.7271 42C14.1144 42.0015 15.4704 41.5918 16.6239 40.8242L17.1737 40.459C17.4898 41.0146 17.9779 41.4531 18.565 41.709V43C18.565 44.6567 17.2169 46 15.5542 46C13.8914 46 12.5433 44.6567 12.5433 43V42H12.7271ZM15.5542 48C15.8913 48.0005 16.2275 47.9668 16.5578 47.8999V49C16.5612 49.2847 16.6871 49.5542 16.9042 49.7402L15.5542 50.75L14.2041 49.7402C14.4212 49.5542 14.5471 49.2847 14.5505 49V47.8999C14.8808 47.9668 15.217 48.0005 15.5542 48ZM25.5349 53.356C25.2698 51.3887 23.8648 49.7627 21.9522 49.208L18.565 48.2441V46.9741C19.8239 46.0376 20.5678 44.5654 20.5722 43V42C21.1264 42 21.5758 41.5522 21.5758 41V40C21.5758 36.6865 18.8796 34 15.5542 34C12.2287 34 9.53249 36.6865 9.53249 40V41C9.53249 41.5522 9.98186 42 10.5361 42V43C10.5405 44.5654 11.2844 46.0376 12.5433 46.9741V48.2441L9.15712 49.208C7.24399 49.7622 5.83903 51.3887 5.57343 53.356C1.11893 48.084 1.56732 40.2646 6.59566 35.5327C11.624 30.8008 19.4843 30.8008 24.5126 35.5327C29.541 40.2646 29.9894 48.084 25.5349 53.356Z" fill="#034899"/>
<path d="M5.51807 44H7.52529V46H5.51807V44Z" fill="#034899"/>
<path d="M23.583 44H25.5902V46H23.583V44Z" fill="#034899"/>
<path d="M45.6624 30C37.3483 30 30.6083 36.7158 30.6083 45C30.6083 53.2842 37.3483 60 45.6624 60C53.9765 60 60.7166 53.2842 60.7166 45C60.7073 36.7197 53.9726 30.0093 45.6624 30ZM41.648 57.3638V54H39.6408V56.521C38.9331 56.1499 38.2613 55.7144 37.6335 55.2212V54.02C37.636 52.6807 38.5254 51.5039 39.8162 51.1309L41.9993 50.5112L45.0602 52.7998C45.4169 53.0669 45.9079 53.0669 46.2647 52.7998L49.3255 50.5112L51.5096 51.1318C52.7999 51.5044 53.6889 52.6812 53.6913 54.02V55.2261C53.0636 55.7197 52.3917 56.1548 51.6841 56.5259V54H49.6769V57.3638C47.0684 58.2119 44.2565 58.2119 41.648 57.3638ZM49.0143 39.4458L48.5679 38.5542C48.4395 38.2969 48.2062 38.1074 47.9279 38.0337C47.6491 37.9595 47.3526 38.0088 47.1125 38.168L45.6193 39.1602C44.7951 39.7085 43.8262 40.001 42.8354 40H41.648C41.6406 37.791 43.4317 35.9941 45.6487 35.9863C47.8662 35.979 49.6695 37.7637 49.6769 39.9731C49.3887 39.9033 49.1462 39.7104 49.0143 39.4458ZM42.8354 42C44.2227 42.0015 45.5786 41.5918 46.7322 40.8242L47.282 40.459C47.5981 41.0146 48.0862 41.4531 48.6733 41.709V43C48.6733 44.6567 47.3251 46 45.6624 46C43.9997 46 42.6516 44.6567 42.6516 43V42H42.8354ZM45.6624 48C45.9996 48.0005 46.3357 47.9668 46.666 47.8999V49C46.6695 49.2847 46.7954 49.5542 47.0125 49.7402L45.6624 50.75L44.3124 49.7402C44.5294 49.5542 44.6554 49.2847 44.6588 49V47.8999C44.9891 47.9668 45.3253 48.0005 45.6624 48ZM55.6432 53.356C55.378 51.3887 53.9731 49.7627 52.0604 49.208L48.6733 48.2441V46.9741C49.9322 46.0376 50.6761 44.5654 50.6805 43V42C51.2347 42 51.6841 41.5522 51.6841 41V40C51.6841 36.6865 48.9879 34 45.6624 34C42.337 34 39.6408 36.6865 39.6408 40V41C39.6408 41.5522 40.0901 42 40.6444 42V43C40.6488 44.5654 41.3927 46.0376 42.6516 46.9741V48.2441L39.2654 49.208C37.3523 49.7622 35.9473 51.3887 35.6817 53.356C31.2272 48.084 31.6756 40.2646 36.7039 35.5327C41.7323 30.8008 49.5926 30.8008 54.6209 35.5327C59.6493 40.2646 60.0977 48.084 55.6432 53.356Z" fill="#034899"/>
<path d="M35.6263 44H37.6336V46H35.6263V44Z" fill="#034899"/>
<path d="M53.6913 44H55.6985V46H53.6913V44Z" fill="#034899"/>
<path d="M57.7058 14H59.713V16H57.7058V14Z" fill="#034899"/>
<path d="M57.7058 18H59.713V20H57.7058V18Z" fill="#034899"/>
<path d="M57.7058 22H59.713V24H57.7058V22Z" fill="#034899"/>
<path d="M57.7058 26H59.713V28H57.7058V26Z" fill="#034899"/>
<path d="M7.52529 15C7.52529 13.3433 8.8734 12 10.5361 12H13.5469V23C13.5469 24.6567 14.8951 26 16.5578 26H44.6589C46.3216 26 47.6697 24.6567 47.6697 23V12H50.6805C52.3432 12 53.6914 13.3433 53.6914 15V30H55.6986V15C55.6951 12.2397 53.4507 10.0034 50.6805 10H47.6697V3C47.6697 1.34326 46.3216 0 44.6589 0H16.5578C14.8951 0 13.5469 1.34326 13.5469 3V10H10.5361C7.7659 10.0034 5.5215 12.2397 5.51807 15V30H7.52529V15ZM15.5542 3C15.5542 2.44775 16.0035 2 16.5578 2H44.6589C45.2131 2 45.6625 2.44775 45.6625 3V23C45.6625 23.5522 45.2131 24 44.6589 24H16.5578C16.0035 24 15.5542 23.5522 15.5542 23V3Z" fill="#034899"/>
<path d="M1.5036 14H3.51082V16H1.5036V14Z" fill="#034899"/>
<path d="M1.5036 18H3.51082V20H1.5036V18Z" fill="#034899"/>
<path d="M1.5036 22H3.51082V24H1.5036V22Z" fill="#034899"/>
<path d="M1.5036 26H3.51082V28H1.5036V26Z" fill="#034899"/>
<path d="M23.8771 18.293L35.9209 6.29248L37.3401 7.70654L25.2967 19.707L23.8771 18.293Z" fill="#E6330F"/>
<path d="M34.6228 14C32.9601 14 31.6119 15.3433 31.6119 17C31.6119 18.6567 32.9601 20 34.6228 20C36.2855 20 37.6336 18.6567 37.6336 17C37.6336 15.3433 36.2855 14 34.6228 14ZM34.6228 18C34.0685 18 33.6192 17.5522 33.6192 17C33.6192 16.4478 34.0685 16 34.6228 16C35.177 16 35.6264 16.4478 35.6264 17C35.6264 17.5522 35.177 18 34.6228 18Z" fill="#E6330F"/>
<path d="M26.5938 12C28.2566 12 29.6047 10.6567 29.6047 9C29.6047 7.34326 28.2566 6 26.5938 6C24.9311 6 23.583 7.34326 23.583 9C23.583 10.6567 24.9311 12 26.5938 12ZM26.5938 8C27.1481 8 27.5974 8.44775 27.5974 9C27.5974 9.55225 27.1481 10 26.5938 10C26.0396 10 25.5902 9.55225 25.5902 9C25.5902 8.44775 26.0396 8 26.5938 8Z" fill="#E6330F"/>
</g>
<defs>
<clipPath id="clip0">
<rect width="60.2166" height="60" fill="white" transform="translate(0.5)"/>
</clipPath>
</defs>
</svg>
