<svg width="60" height="60" viewBox="0 0 60 60" fill="none" xmlns="http://www.w3.org/2000/svg">
<path d="M33.9994 55.9957C46.1488 55.9957 55.9978 46.1467 55.9978 33.9974C55.9978 21.848 46.1488 11.999 33.9994 11.999C21.8501 11.999 12.0011 21.848 12.0011 33.9974C12.0148 46.141 21.8557 55.982 33.9994 55.9957ZM17.0007 32.9974H14.0519C14.5732 22.7566 22.7587 14.5711 32.9995 14.0499V16.9986C32.9995 17.5509 33.4472 17.9986 33.9994 17.9986C34.5517 17.9986 34.9994 17.5509 34.9994 16.9986V14.0499C45.2402 14.5711 53.4257 22.7566 53.9469 32.9974H49.9982C49.446 32.9974 48.9983 33.4452 48.9983 33.9974C48.9983 34.5496 49.446 34.9973 49.9982 34.9973H53.9469C53.4257 45.238 45.2402 53.4237 34.9994 53.9449V50.9961C34.9994 50.4439 34.5517 49.9962 33.9994 49.9962C33.4472 49.9962 32.9995 50.4439 32.9995 50.9961V53.9449C22.7588 53.4237 14.5732 45.2382 14.0519 34.9973H17.0007C17.5529 34.9973 18.0006 34.5496 18.0006 33.9974C18.0006 33.4452 17.5529 32.9974 17.0007 32.9974Z" fill="#034899"/>
<path d="M56.5127 21.0157C56.2146 20.4992 55.8988 19.9932 55.5658 19.4985L58.0346 17.0297C58.425 16.6393 58.425 16.0063 58.0346 15.6158L52.385 9.96625C51.9946 9.57591 51.3616 9.57591 50.9711 9.96625L48.4983 12.4311C44.4984 9.73052 39.8222 8.20401 34.9993 8.0244V1.99985H41.9988C42.551 1.99985 42.9987 1.55213 42.9987 0.999925C42.9987 0.447716 42.551 0 41.9988 0H26C25.4478 0 25.0001 0.447716 25.0001 0.999925C25.0001 1.55213 25.4478 1.99985 26 1.99985H32.9995V8.0334C24.0817 8.37387 15.9633 13.2698 11.5011 20.9984H6.00151C5.44931 20.9984 5.00159 21.4461 5.00159 21.9983C5.00159 22.5506 5.44931 22.9983 6.00151 22.9983H12.0011C12.0271 22.9983 12.0491 22.9853 12.0751 22.9833C12.4354 22.9879 12.7696 22.7964 12.948 22.4833C19.3099 10.8562 33.8928 6.58776 45.5201 12.9495C57.1473 19.3113 61.4155 33.8945 55.0537 45.5216C48.6918 57.1487 34.1089 61.4171 22.4817 55.0554C18.458 52.8538 15.1495 49.5453 12.9479 45.5216C12.7713 45.2072 12.4375 45.0137 12.0769 45.0166C12.0509 45.0166 12.0279 45.0016 12.0009 45.0016H6.00139C5.44918 45.0016 5.00146 45.4493 5.00146 46.0015C5.00146 46.5538 5.44918 47.0015 6.00139 47.0015H11.501C18.6768 59.431 34.5701 63.6902 46.9997 56.5144C59.4294 49.3385 63.6884 33.4452 56.5127 21.0157ZM50.1323 13.6327L51.678 12.0871L55.9136 16.3228L54.3658 17.8707C53.1209 16.3013 51.7005 14.8794 50.1323 13.6327Z" fill="#034899"/>
<path d="M10.0012 33.9975C10.0012 33.4453 9.55349 32.9976 9.00128 32.9976H1.00188C0.44967 32.9976 0.00195312 33.4453 0.00195312 33.9975C0.00195312 34.5497 0.44967 34.9974 1.00188 34.9974H9.00128C9.55349 34.9974 10.0012 34.5497 10.0012 33.9975Z" fill="#034899"/>
<path d="M3.0009 28.9979H10.0004C10.5526 28.9979 11.0003 28.5502 11.0003 27.998C11.0003 27.4458 10.5526 26.998 10.0004 26.998H3.0009C2.44869 26.998 2.00098 27.4458 2.00098 27.998C2.00098 28.5502 2.44857 28.9979 3.0009 28.9979Z" fill="#034899"/>
<path d="M11.0003 39.997C11.0003 39.4448 10.5526 38.9971 10.0004 38.9971H3.0009C2.44869 38.9971 2.00098 39.4448 2.00098 39.997C2.00098 40.5492 2.44869 40.9969 3.0009 40.9969H10.0004C10.5526 40.9969 11.0003 40.5492 11.0003 39.997Z" fill="#034899"/>
<path d="M31.2926 40.7041C31.6831 41.0945 32.3161 41.0945 32.7065 40.7041L46.6055 26.8052C46.9892 26.4079 46.9782 25.775 46.581 25.3913C46.1935 25.017 45.5792 25.017 45.1916 25.3913L31.9996 38.5833L26.05 32.6337C25.6528 32.2501 25.0197 32.261 24.6361 32.6582C24.2619 33.0457 24.2619 33.66 24.6361 34.0476L31.2926 40.7041Z" fill="#E6330F"/>
</svg>
